<!DOCTYPE svg PUBLIC "-//W3C//DTD SVG 1.1//EN" "http://www.w3.org/Graphics/SVG/1.1/DTD/svg11.dtd">
                <svg xmlns="http://www.w3.org/2000/svg" xmlns:xlink="http://www.w3.org/1999/xlink" 
                width="316" height="232" shape-rendering="optimizeSpeed">
                
            <g>
                <rect x="50" y="80"
            width="182.6" height="30"
            style="fill:#80cbc4; stroke:#444; stroke-width:1" />
                    
                <line x1="60" y1="80" x2="60" y2="110"
                style="fill:#80cbc4; stroke:#444; stroke-width:1" />
                <line x1="222.6" y1="80" x2="222.6" y2="110"
                style="fill:#80cbc4; stroke:#444; stroke-width:1" />
             
                <title>class Randomizer </title>
            <text x="75" y="100"
                font-family="monospace" font-size="13" fill="#222">
                <tspan x="75" y="100">class Randomizer </tspan>
            </text>
                
            </g>
            <g>
                <rect x="87" y="128.5"
            width="151.39999999999998" height="30"
            style="fill:#a5d6a7; stroke:#444; stroke-width:1" />
                    
                <line x1="97" y1="128.5" x2="97" y2="158.5"
                style="fill:#a5d6a7; stroke:#444; stroke-width:1" />
                <line x1="228.39999999999998" y1="128.5" x2="228.39999999999998" y2="158.5"
                style="fill:#a5d6a7; stroke:#444; stroke-width:1" />
             
                <title>constructor()</title>
            <text x="112" y="148.5"
                font-family="monospace" font-size="13" fill="#222">
                <tspan x="112" y="148.5">constructor()</tspan>
            </text>
                
            </g>
                <g>
                   <rect x="50" y="177"
            width="240.6" height="30"
            rx="3" ry="3"
            style="fill:#90caf9; stroke:#444; stroke-width:1" />
                   <title>module.exports = Randomizer</title>
            <text x="65" y="197"
                font-family="monospace" font-size="13" fill="#222">
                <tspan x="65" y="197">module.exports = Randomizer</tspan>
            </text>
                   
                   
                </g>
            <g>
               <rect x="25" y="13.75"
            width="216.6" height="24"
            style="fill:#fff59d; stroke:#444; stroke-width:1" />
               <circle cx="25" cy="25" r="15"
        style="fill:#fff59d; stroke:#444; stroke-width:1" />
               <title>Program: source module</title>
            <text x="55" y="30"
                font-family="monospace" font-size="13" fill="#222">
                <tspan x="55" y="30">Program: source module</tspan>
            </text>
            </g>
            <g>
               <path d="M25, 40 L25 91 Q25 95
                29 95
                L42 95 "
        style="fill:none; stroke:#444; stroke-width:1" />
               <path d="M42, 92 L50, 95 L42, 98 Z" 
        fill="#333" />
            </g>
            <g>
               <path d="M68.5, 110 L68.5 139.5 Q68.5 143.5
                72.5 143.5
                L79 143.5 "
        style="fill:none; stroke:#444; stroke-width:1" />
               <path d="M79, 140.5 L87, 143.5 L79, 146.5 Z" 
        fill="#333" />
            </g>
            <g>
               <path d="M25, 40 L25 188 Q25 192
                29 192
                L42 192 "
        style="fill:none; stroke:#444; stroke-width:1" />
               <path d="M42, 189 L50, 192 L42, 195 Z" 
        fill="#333" />
            </g>
            </svg>