<svg xmlns="http://www.w3.org/2000/svg" fill="var(--color)" viewBox="0 0 24 24" height="24" width="24"><g id="browser-hash--window-hash-code-internet-language-browser-web-tag"><path id="Union" fill="var(--color)" fill-rule="evenodd" d="M2 2H1v20h22V2H2Zm1 5v13h18V7H3Zm10.198 5.5 -0.445 2h-1.95l0.444 -2h1.95Zm2.049 0 -0.445 2H16v2h-1.642l-0.382 1.717 -1.952 -0.434 0.285 -1.283h-1.951l-0.382 1.717 -1.952 -0.434 0.285 -1.283H7v-2h1.753l0.445 -2H8v-2h1.642l0.382 -1.717 1.952 0.434 -0.285 1.283h1.951l0.382 -1.717 1.952 0.434 -0.285 1.283H17v2h-1.753Z" clip-rule="evenodd" stroke-width="1"></path></g></svg>