<svg xmlns="http://www.w3.org/2000/svg" fill="none" viewBox="0 0 24 24" height="24" width="24"><g id="curly-brackets"><path id="Union" fill="#ffffff" fill-rule="evenodd" d="M6.677 0.75h-1.25v8.715l-2.313 1.483L1.472 12l1.642 1.052 2.313 1.483v8.715h4.822v-2.5H7.927v-7.582l-0.575 -0.368 -1.248 -0.8 1.248 -0.8 0.575 -0.368V3.25h2.322V0.75H6.677Zm10.646 0h1.25v8.715l2.314 1.483L22.528 12l-1.641 1.052 -2.314 1.483v8.715h-4.822v-2.5h2.322v-7.582l0.575 -0.368 1.248 -0.8 -1.248 -0.8 -0.575 -0.368V3.25h-2.322V0.75h3.572Z" clip-rule="evenodd" stroke-width="1"></path></g></svg>