<svg xmlns="http://www.w3.org/2000/svg" width="190" height="50" fill="none" viewBox="0 0 190 50"><path fill="#fff" d="M62.258 41.032V11.817h6.893l8.325 28.28h.94l8.37-28.28h6.848v29.215h-3.402V15.196l.582-2.445h-.985l-8.414 28.28h-6.893l-8.415-28.28h-.94l.537 2.445v25.836zm36.076-10.317c0-3.023 1.029-5.603 3.043-7.648q3.021-3.068 7.922-3.068c3.223 0 5.864 1.023 7.878 3.068s3.044 4.58 3.044 7.648-1.03 5.603-3.044 7.649c-2.014 2.045-4.655 3.068-7.878 3.068q-4.9 0-7.922-3.068c-2.059-2.046-3.043-4.58-3.043-7.649m3.401 0q0 3.402 2.014 5.603c1.343 1.468 3.178 2.223 5.55 2.223 2.373 0 4.208-.755 5.551-2.223 1.342-1.512 1.969-3.38 1.969-5.603s-.671-4.09-1.969-5.558c-1.343-1.468-3.178-2.224-5.551-2.224-2.372 0-4.207.756-5.55 2.224-1.342 1.467-2.014 3.335-2.014 5.558m23.185 10.317V22.889c0-1.956.94-2.89 2.865-2.801l11.503.355v2.89l-10.966-.355v18.054zm18.441-20.589h3.401v3.024l-.537 2.357h.94c.493-1.734 1.432-3.113 2.82-4.18 1.432-1.067 3.267-1.6 5.55-1.6 2.954 0 5.326 1.022 7.161 3.023 1.836 2 2.731 4.58 2.731 7.693s-.895 5.647-2.731 7.648-4.207 3.024-7.161 3.024c-2.238 0-4.118-.534-5.55-1.601s-2.372-2.446-2.865-4.18h-.94l.538 2.312v10.583h-3.402V20.443zm3.401 10.317c0 2.579.716 4.535 2.194 5.825s3.312 1.956 5.594 1.956c2.238 0 4.073-.667 5.416-1.956 1.343-1.29 2.059-3.246 2.059-5.825s-.671-4.536-2.059-5.87c-1.343-1.334-3.178-1.957-5.416-1.957-2.282 0-4.162.668-5.594 1.957-1.478 1.29-2.194 3.246-2.194 5.87m35.494-10.761c2.417 0 4.297.711 5.685 2.134 1.343 1.423 2.059 3.513 2.059 6.314v12.585h-3.402v-12.14c0-2.134-.403-3.646-1.253-4.58-.851-.934-2.193-1.378-3.984-1.378-2.238 0-4.028.8-5.416 2.445-1.387 1.645-2.058 3.824-2.058 6.537v9.116h-3.402v-30.46h3.402V24l-.538 2.357h.94c.448-1.913 1.343-3.469 2.686-4.625s3.088-1.734 5.281-1.734M38.007 4.98c-.535 2.134-2.678 3.36-4.776 2.814-2.098-.544-3.794-1.997-2.767-4.856.714-2.043 2.678-3.36 4.776-2.815 2.098.59 3.303 2.77 2.767 4.857m10.558 13.598c7.75 10.564-4.543 28.693-18.425 31.053C17.597 51.764 4.992 44.476 1.243 32.13-1.971 21.69 1.152 9.6 9.409 3.744 14.435.18 21.114 1.284 21.605 6.912c1.339 15.978 20.666 3.994 26.96 11.666"/></svg>