<svg xmlns="http://www.w3.org/2000/svg" viewBox="0 0 293.54 348.94">
  <path fill="#ffffff" d="m90.97 266.49 10.91 3.74 87.56-259.41-11.06-3.74C162.26 2.05 51.54-28.3 8.63 91.81c-40.94 131.35 76.71 172.43 82.33 174.68Zm54.69-242.37c6.93 1.31 12.1 8.07 9.71 15.09l-31.08 92.65C102.34 195.26 10.37 158 37.44 91.69c27.47-67.29 83.68-72.21 108.22-67.57Zm56.93 59.28-10.91-3.74-87.56 259.41 11.06 3.74c8.4 2.88 126.84 35.39 169.75-84.73C325.87 126.73 207.79 85.33 202.6 83.4ZM147.9 325.77c-6.93-1.31-12.1-8.07-9.71-15.09l31.08-92.65c21.95-63.4 113.92-26.14 86.85 40.17-27.47 67.29-83.68 72.22-108.22 67.57Z"/>
</svg>
