<svg width="57" height="57" viewBox="0 0 57 57" fill="none" xmlns="http://www.w3.org/2000/svg">
<g clip-path="url(#clip0_102_29215)">
<path d="M23.637 2.06274C26.3949 -0.315026 30.4781 -0.315027 33.236 2.06274L34.844 3.44904C36.204 4.62161 37.9462 5.25574 39.7418 5.23171L41.8647 5.20331C45.5058 5.1546 48.6337 7.77921 49.2179 11.3734L49.5586 13.469C49.8467 15.2414 50.7738 16.8471 52.1647 17.9829L53.8092 19.3256C56.6297 21.6288 57.3387 25.6499 55.476 28.7788L54.39 30.6031C53.4714 32.1461 53.1494 33.972 53.4849 35.7361L53.8815 37.8217C54.5617 41.3991 52.5202 44.9352 49.082 46.1348L47.0774 46.8341C45.3819 47.4257 43.9617 48.6174 43.0847 50.1844L42.0479 52.0371C40.2695 55.2147 36.4326 56.6113 33.0277 55.3202L31.0426 54.5674C29.3635 53.9307 27.5095 53.9307 25.8304 54.5674L23.8453 55.3202C20.4405 56.6113 16.6035 55.2147 14.8252 52.0371L13.7883 50.1844C12.9114 48.6174 11.4911 47.4257 9.79558 46.8341L7.79104 46.1348C4.35287 44.9352 2.31128 41.3991 2.99152 37.8218L3.38812 35.7361C3.72358 33.972 3.40162 32.1461 2.48304 30.6031L1.39702 28.7788C-0.465722 25.6499 0.243313 21.6288 3.06387 19.3256L4.70832 17.9829C6.09925 16.8471 7.02628 15.2414 7.31441 13.469L7.65507 11.3734C8.23937 7.77921 11.3673 5.1546 15.0084 5.20331L17.1312 5.23171C18.9268 5.25574 20.669 4.62161 22.0291 3.44904L23.637 2.06274Z" fill="url(#paint0_linear_102_29215)"/>
<path d="M38.1008 22.4604H18.8089C18.3797 22.4604 18.0319 22.8112 18.0319 23.2438V39.5543C18.0319 39.9869 18.3797 40.3376 18.8089 40.3376H22.2482V45.8343C22.2482 47.1097 23.2736 48.1436 24.5387 48.1436C25.8036 48.1436 26.8292 47.1098 26.8292 45.8343V40.3376H30.0328V45.8343C30.0328 47.1097 31.0583 48.1436 32.3233 48.1436C33.5883 48.1436 34.6138 47.1098 34.6138 45.8343V40.3376H38.1009C38.53 40.3376 38.8779 39.9869 38.8779 39.5543V23.2438C38.8778 22.8112 38.5299 22.4604 38.1008 22.4604Z" fill="white"/>
<path d="M14.7655 22.4565C13.5005 22.4565 12.475 23.4904 12.475 24.7658V34.1452C12.475 35.4205 13.5004 36.4545 14.7655 36.4545C16.0304 36.4545 17.056 35.4206 17.056 34.1452V24.7658C17.0559 23.4905 16.0304 22.4565 14.7655 22.4565Z" fill="white"/>
<path d="M42.144 22.4565C40.8791 22.4565 39.8535 23.4904 39.8535 24.7658V34.1452C39.8535 35.4205 40.879 36.4545 42.144 36.4545C43.409 36.4545 44.4345 35.4206 44.4345 34.1452V24.7658C44.4345 23.4905 43.4091 22.4565 42.144 22.4565Z" fill="white"/>
<path d="M18.9647 21.3165H37.8988C38.3928 21.3165 38.7612 20.8578 38.6597 20.3704C38.0334 17.3609 36.1329 14.8247 33.5541 13.3596L35.1727 10.4152C35.2823 10.2158 35.2108 9.96459 35.0131 9.85415C34.8149 9.74343 34.5661 9.81573 34.4566 10.0151L32.8257 12.9817C31.49 12.3567 30.0013 12.0077 28.4318 12.0077C26.8621 12.0077 25.3735 12.3567 24.0377 12.9817L22.4068 10.015C22.2972 9.81554 22.048 9.74362 21.8504 9.85406C21.6527 9.96449 21.5812 10.2157 21.6908 10.4151L23.3094 13.3595C20.7306 14.8247 18.8301 17.3608 18.2038 20.3704C18.1023 20.8578 18.4707 21.3165 18.9647 21.3165ZM34.0815 16.9284C34.0815 17.4186 33.6873 17.8161 33.201 17.8161C32.7148 17.8161 32.3205 17.4187 32.3205 16.9284C32.3205 16.4382 32.7147 16.0407 33.201 16.0407C33.6873 16.0407 34.0815 16.4382 34.0815 16.9284ZM23.6623 16.0407C24.1485 16.0407 24.5428 16.4381 24.5428 16.9284C24.5428 17.4186 24.1486 17.8161 23.6623 17.8161C23.1761 17.8161 22.7819 17.4187 22.7819 16.9284C22.7819 16.4382 23.176 16.0407 23.6623 16.0407Z" fill="white"/>
</g>
<defs>
<linearGradient id="paint0_linear_102_29215" x1="28.4365" y1="-9.45795" x2="28.4365" y2="61.9929" gradientUnits="userSpaceOnUse">
<stop offset="0.400982" stop-color="#303030"/>
<stop offset="1" stop-opacity="0"/>
</linearGradient>
<clipPath id="clip0_102_29215">
<rect width="57" height="57" fill="white"/>
</clipPath>
</defs>
</svg>
