<svg width="57" height="57" viewBox="0 0 57 57" fill="none" xmlns="http://www.w3.org/2000/svg">
<rect width="57.0001" height="57.0001" rx="12.35" fill="url(#paint0_linear_102_29212)"/>
<path d="M11.1383 23.0643V20.3731H14.1883V23.0643H11.1383ZM11.1383 36.8564V24.7463H14.1883V36.8564H11.1383ZM24.4797 37.1928C22.865 37.1928 21.4708 36.8415 20.2972 36.1388C19.131 35.4361 18.2302 34.4531 17.5948 33.1898C16.9669 31.9264 16.6529 30.4575 16.6529 28.783C16.6529 27.1085 16.9669 25.6396 17.5948 24.3762C18.2302 23.1129 19.131 22.1299 20.2972 21.4272C21.4708 20.7245 22.865 20.3731 24.4797 20.3731C26.0944 20.3731 27.4848 20.7245 28.651 21.4272C29.8246 22.1299 30.7254 23.1129 31.3533 24.3762C31.9888 25.6396 32.3065 27.1085 32.3065 28.783C32.3065 30.4575 31.9888 31.9264 31.3533 33.1898C30.7254 34.4531 29.8246 35.4361 28.651 36.1388C27.4848 36.8415 26.0944 37.1928 24.4797 37.1928ZM24.4797 34.3223C25.5038 34.3372 26.356 34.1167 27.0363 33.6607C27.7165 33.2047 28.2249 32.5581 28.5613 31.7208C28.9051 30.8836 29.0771 29.9043 29.0771 28.783C29.0771 27.6617 28.9051 26.6899 28.5613 25.8676C28.2249 25.0453 27.7165 24.4061 27.0363 23.9501C26.356 23.4941 25.5038 23.2587 24.4797 23.2437C23.4556 23.2287 22.6034 23.4493 21.9231 23.9053C21.2428 24.3613 20.7308 25.0079 20.3869 25.8451C20.0505 26.6824 19.8823 27.6617 19.8823 28.783C19.8823 29.9043 20.0505 30.8761 20.3869 31.6984C20.7308 32.5207 21.2428 33.1598 21.9231 33.6158C22.6034 34.0719 23.4556 34.3073 24.4797 34.3223ZM40.6448 37.1928C39.4488 37.1928 38.3686 36.9835 37.4042 36.5649C36.4474 36.1388 35.6587 35.5333 35.0383 34.7484C34.4253 33.956 34.0366 33.0141 33.8721 31.9227L37.0566 31.4517C37.2809 32.3787 37.7444 33.0926 38.4471 33.5934C39.1497 34.0943 39.9496 34.3447 40.8467 34.3447C41.3475 34.3447 41.8334 34.2662 42.3044 34.1092C42.7753 33.9522 43.1603 33.7205 43.4593 33.414C43.7658 33.1075 43.9191 32.73 43.9191 32.2815C43.9191 32.117 43.8929 31.96 43.8406 31.8105C43.7957 31.6536 43.7172 31.5078 43.6051 31.3732C43.493 31.2387 43.3322 31.1116 43.1229 30.992C42.9211 30.8724 42.6632 30.764 42.3492 30.6668L38.1555 29.4334C37.8415 29.3436 37.4752 29.2166 37.0566 29.0521C36.6455 28.8876 36.2455 28.6522 35.8568 28.3457C35.4681 28.0392 35.1429 27.6355 34.8813 27.1347C34.6271 26.6263 34.5 25.9872 34.5 25.2172C34.5 24.1333 34.7729 23.2325 35.3186 22.5148C35.8643 21.7972 36.5931 21.2627 37.5051 20.9114C38.4171 20.56 39.4263 20.3881 40.5327 20.3956C41.6465 20.4105 42.6408 20.6011 43.5154 20.9674C44.39 21.3337 45.1226 21.8682 45.7132 22.5709C46.3037 23.2661 46.7298 24.1183 46.9915 25.1275L43.6948 25.6882C43.5752 25.1649 43.3547 24.7238 43.0332 24.365C42.7118 24.0062 42.3268 23.7333 41.8783 23.5465C41.4372 23.3596 40.9737 23.2587 40.4878 23.2437C40.0094 23.2287 39.5572 23.296 39.1311 23.4455C38.7124 23.5876 38.3686 23.7969 38.0994 24.0735C37.8378 24.3501 37.707 24.679 37.707 25.0602C37.707 25.4116 37.8154 25.6994 38.0322 25.9236C38.249 26.1404 38.5218 26.3161 38.8507 26.4507C39.1796 26.5852 39.516 26.6973 39.8599 26.7871L42.6632 27.5495C43.0818 27.6617 43.5453 27.8112 44.0536 27.9981C44.5619 28.1775 45.0478 28.4316 45.5113 28.7606C45.9823 29.082 46.3673 29.5081 46.6663 30.0389C46.9728 30.5696 47.126 31.2424 47.126 32.0572C47.126 32.9244 46.9429 33.6831 46.5766 34.3335C46.2178 34.9764 45.7318 35.5109 45.1189 35.937C44.5059 36.3556 43.8107 36.6696 43.0332 36.8789C42.2633 37.0882 41.4671 37.1928 40.6448 37.1928Z" fill="white"/>
<defs>
<linearGradient id="paint0_linear_102_29212" x1="28.5" y1="0" x2="28.5" y2="57.0001" gradientUnits="userSpaceOnUse">
<stop offset="0.358317" stop-color="#303030"/>
<stop offset="1" stop-color="#121212"/>
</linearGradient>
</defs>
</svg>
