<svg width="24" height="24" viewBox="0 0 24 24" fill="none" xmlns="http://www.w3.org/2000/svg">
<g clip-path="url(#clip0_142_25407)">
<path d="M7.33329 11L6.66663 13.0667H7.99996L7.33329 11Z" fill="white"/>
<path d="M20.2 2H9.53332V5.33333H12.2V6.66667H3.53333C2.39999 6.66667 1.53333 7.53333 1.53333 8.66667V16C1.53333 17.1333 2.39999 18 3.53333 18H4.19999V21.4L8.39999 18H12.8667V13.3333H20.2C21.3333 13.3333 22.2 12.4667 22.2 11.3333V4C22.2 2.86667 21.3333 2 20.2 2ZM8.73333 15.2667L8.39999 14.2H6.33332L5.93332 15.2667H4.33332L6.53332 9.33333H8.13332L10.3333 15.2667H8.73333ZM18.8667 10V11.3333C18 11.3333 17.0667 11.0667 16.2667 10.6667C15.4667 11.0667 14.5333 11.2667 13.6 11.3333L13.5333 10C14 10 14.4667 9.93333 14.9333 9.8C14.3333 9.2 13.9333 8.46667 13.7333 7.66667H15.1333C15.3333 8.26667 15.7333 8.73333 16.2 9.13333C16.9333 8.53333 17.4 7.66667 17.4667 6.66667H13.4667V5.33333H15.4667V4H16.8V5.33333H19L19.0667 6C19.1333 7.4 18.6 8.8 17.6 9.8C18.0667 9.93333 18.4667 10 18.8667 10Z" fill="white"/>
</g>
<defs>
<clipPath id="clip0_142_25407">
<rect width="24" height="24" fill="white"/>
</clipPath>
</defs>
</svg>
