<svg width="29" height="29" viewBox="0 0 29 29" fill="none" xmlns="http://www.w3.org/2000/svg">
<path d="M14.5 29C22.5081 29 29 22.5081 29 14.5C29 6.49187 22.5081 0 14.5 0C6.49187 0 0 6.49187 0 14.5C0 22.5081 6.49187 29 14.5 29Z" fill="black"/>
<path d="M19.9291 5.94425C19.6969 6.86391 18.768 7.39222 17.8586 7.15742C16.9491 6.92261 16.2138 6.29646 16.6588 5.06372C16.9685 4.1832 17.8199 3.61575 18.7293 3.85055C19.6388 4.10493 20.1613 5.04416 19.9291 5.94425Z" fill="white"/>
<path d="M24.5061 11.8061C27.8657 16.3602 22.5365 24.1754 16.5185 25.1928C11.081 26.1125 5.61663 22.9706 3.99119 17.6483C2.59795 13.1479 3.95168 7.93567 7.53153 5.4115C9.71019 3.87527 12.6055 4.35101 12.8184 6.77735C13.3989 13.665 21.7777 8.49927 24.5061 11.8061Z" fill="white"/>
</svg>
