<svg width="190" height="50" viewBox="0 0 190 50" fill="none" xmlns="http://www.w3.org/2000/svg">
<path d="M62.2578 41.0316L62.2578 11.8169L69.1507 11.8169L77.4759 40.0978L78.4158 40.0978L86.7857 11.8169L93.6338 11.8169L93.6338 41.0316L90.2321 41.0316L90.2321 15.1964L90.814 12.7507L89.8293 12.7507L81.4146 41.0316L74.5218 41.0316L66.1071 12.7507L65.1672 12.7507L65.7043 15.1964L65.7043 41.0316L62.2578 41.0316Z" fill="white"/>
<path d="M98.3336 30.7153C98.3336 27.6915 99.3631 25.1125 101.377 23.067C103.391 21.0215 106.032 19.9988 109.3 19.9988C112.522 19.9988 115.163 21.0215 117.177 23.067C119.191 25.1125 120.221 27.6471 120.221 30.7153C120.221 33.7835 119.191 36.3181 117.177 38.3636C115.163 40.4091 112.522 41.4318 109.3 41.4318C106.032 41.4318 103.391 40.4091 101.377 38.3636C99.3183 36.3181 98.3336 33.7835 98.3336 30.7153ZM101.735 30.7153C101.735 32.9831 102.407 34.8507 103.749 36.3181C105.092 37.7855 106.927 38.5415 109.3 38.5415C111.672 38.5415 113.507 37.7855 114.85 36.3181C116.192 34.8062 116.819 32.9386 116.819 30.7153C116.819 28.492 116.148 26.6243 114.85 25.1569C113.507 23.6895 111.672 22.9336 109.3 22.9336C106.927 22.9336 105.092 23.6895 103.749 25.1569C102.407 26.6243 101.735 28.492 101.735 30.7153Z" fill="white"/>
<path d="M124.921 41.0315L124.921 22.889C124.921 20.9325 125.86 19.9987 127.785 20.0876L139.288 20.4433L139.288 23.3337L128.322 22.9779L128.322 41.0315L124.921 41.0315Z" fill="white"/>
<path d="M143.361 20.4434L146.763 20.4434L146.763 23.4672L146.225 25.8239L147.165 25.8239C147.658 24.0897 148.598 22.7112 149.985 21.644C151.417 20.5768 153.253 20.0432 155.535 20.0432C158.489 20.0432 160.862 21.0659 162.697 23.067C164.532 25.068 165.427 27.647 165.427 30.7597C165.427 33.8724 164.532 36.407 162.697 38.408C160.862 40.409 158.489 41.4318 155.535 41.4318C153.297 41.4318 151.417 40.8982 149.985 39.831C148.553 38.7638 147.613 37.3853 147.121 35.6511L146.181 35.6511L146.718 37.9634L146.718 48.5465L143.316 48.5465L143.316 20.4434L143.361 20.4434ZM146.763 30.7597C146.763 33.3388 147.479 35.2953 148.956 36.5849C150.433 37.8744 152.268 38.5414 154.551 38.5414C156.788 38.5414 158.624 37.8744 159.966 36.5849C161.309 35.2953 162.025 33.3388 162.025 30.7597C162.025 28.1807 161.354 26.2241 159.966 24.8901C158.624 23.5561 156.788 22.9336 154.551 22.9336C152.268 22.9336 150.388 23.6006 148.956 24.8901C147.479 26.1796 146.763 28.1362 146.763 30.7597Z" fill="white"/>
<path d="M182.257 19.9988C184.673 19.9988 186.553 20.7102 187.941 22.1332C189.284 23.5561 190 25.646 190 28.4475L190 41.0316L186.598 41.0316L186.598 28.8921C186.598 26.7577 186.195 25.2458 185.345 24.312C184.494 23.3782 183.152 22.9336 181.361 22.9336C179.123 22.9336 177.333 23.734 175.945 25.3792C174.558 27.0245 173.887 29.2034 173.887 31.9159L173.887 41.0316L170.485 41.0316L170.485 10.5718L173.887 10.5718L173.887 24.0008L173.349 26.3575L174.289 26.3575C174.737 24.4454 175.632 22.8891 176.975 21.733C178.318 20.5768 180.063 19.9988 182.257 19.9988Z" fill="white"/>
<path d="M38.0075 4.98021C37.4718 7.11357 35.3293 8.33912 33.2314 7.79443C31.1335 7.24974 29.4373 5.79724 30.4639 2.93762C31.1781 0.895033 33.1421 -0.421306 35.24 0.123384C37.3379 0.713464 38.5431 2.89223 38.0075 4.98021Z" fill="white"/>
<path d="M48.5652 18.5774C56.3149 29.1417 44.0219 47.2707 30.14 49.631C17.5972 51.7644 4.99231 44.476 1.24285 32.1298C-1.97097 21.6899 1.15173 9.59897 9.40946 3.74357C14.4351 0.17992 21.1138 1.28352 21.6048 6.91198C22.9439 22.8895 42.2714 10.9064 48.5652 18.5774Z" fill="white"/>
</svg>
