<svg width="24" height="23" viewBox="0 0 24 23" fill="none" xmlns="http://www.w3.org/2000/svg">
<g id="Interface / Settings">
<path id="Vector" d="M12 16C14.2091 16 16 14.2091 16 12C16 9.79086 14.2091 8 12 8C9.79086 8 8 9.79086 8 12C8 14.2091 9.79086 16 12 16Z" stroke="#A8ACAF" stroke-width="2" stroke-linecap="round" stroke-linejoin="round"/>
<path id="Vector_2" d="M19.1656 7.52891L19.0999 7.41505C18.9185 7.10104 18.8259 6.74361 18.832 6.38102L18.8619 4.6022C18.868 4.23867 18.6763 3.90047 18.3613 3.71894L15.6247 2.14194C15.3104 1.96086 14.9228 1.96411 14.6117 2.15042L13.0926 3.06C12.7821 3.2459 12.427 3.34409 12.0651 3.34409H11.9334C11.5708 3.34409 11.2149 3.24548 10.904 3.05881L9.37794 2.14264C9.0657 1.95519 8.67624 1.9523 8.36125 2.13511L5.63327 3.71841C5.31978 3.90035 5.12928 4.2377 5.13538 4.60011L5.16535 6.38102C5.17145 6.74361 5.07885 7.10104 4.89746 7.41506L4.83257 7.52739C4.65108 7.84157 4.38754 8.10047 4.07017 8.27634L2.51528 9.13801C2.19659 9.31462 1.99917 9.6506 2 10.015L2.00716 13.1668C2.00798 13.5289 2.20454 13.8623 2.52101 14.0384L4.06844 14.8992C4.38689 15.0764 4.65088 15.3372 4.83191 15.6534L4.90143 15.7749C5.08027 16.0873 5.17146 16.4423 5.16538 16.8022L5.13545 18.5753C5.12931 18.9389 5.32099 19.2771 5.63602 19.4587L8.37266 21.0356C8.68688 21.2167 9.07451 21.2135 9.38566 21.0272L10.9047 20.1176C11.2152 19.9317 11.5703 19.8335 11.9322 19.8335H12.0639C12.4265 19.8335 12.7824 19.9321 13.0933 20.1188L14.6194 21.0349C14.9316 21.2224 15.3211 21.2253 15.6361 21.0425L18.3641 19.4592C18.6775 19.2772 18.868 18.9399 18.8619 18.5775L18.832 16.7966C18.8259 16.434 18.9185 16.0765 19.0999 15.7625L19.1648 15.6502C19.3462 15.336 19.6098 15.0771 19.9272 14.9012L21.482 14.0396C21.8007 13.863 21.9981 13.527 21.9973 13.1626L21.9902 10.0108C21.9893 9.64865 21.7928 9.31525 21.4763 9.13919L19.9252 8.27628C19.6091 8.10043 19.3466 7.84214 19.1656 7.52891Z" stroke="#A8ACAF" stroke-width="2" stroke-linecap="round" stroke-linejoin="round"/>
</g>
</svg>
