<!DOCTYPE svg PUBLIC "-//W3C//DTD SVG 1.1//EN" "http://www.w3.org/Graphics/SVG/1.1/DTD/svg11.dtd">
                <svg xmlns="http://www.w3.org/2000/svg" xmlns:xlink="http://www.w3.org/1999/xlink" 
                width="667" height="2378" shape-rendering="optimizeSpeed">
                
                <g>
                   <rect x="50" y="65"
            width="232.79999999999998" height="30"
            rx="3" ry="3"
            style="fill:#90caf9; stroke:#444; stroke-width:1" />
                   <title>var util = require(&apos;util&apos;)</title>
            <text x="65" y="85"
                font-family="monospace" font-size="13" fill="#222">
                <tspan x="65" y="85">var util = require(&apos;util&apos;)</tspan>
            </text>
                   
                   
                </g>
                <g>
                   <rect x="50" y="113.5"
            width="412.2" height="30"
            rx="3" ry="3"
            style="fill:#90caf9; stroke:#444; stroke-width:1" />
                   <title>var EventEmitter = require(&quot;events&quot;).EventEmitter</title>
            <text x="65" y="133.5"
                font-family="monospace" font-size="13" fill="#222">
                <tspan x="65" y="133.5">var EventEmitter = require(&quot;events&quot;).EventEmitter</tspan>
            </text>
                   
                   
                </g>
            <g>
                <rect x="50" y="177"
            width="128" height="30"
            style="fill:#80cbc4; stroke:#444; stroke-width:1" />
                    
                <line x1="60" y1="177" x2="60" y2="207"
                style="fill:#80cbc4; stroke:#444; stroke-width:1" />
                <line x1="168" y1="177" x2="168" y2="207"
                style="fill:#80cbc4; stroke:#444; stroke-width:1" />
             
                <title>class air </title>
            <text x="75" y="197"
                font-family="monospace" font-size="13" fill="#222">
                <tspan x="75" y="197">class air </tspan>
            </text>
                
            </g>
            <g>
                <rect x="87" y="225.5"
            width="151.39999999999998" height="30"
            style="fill:#a5d6a7; stroke:#444; stroke-width:1" />
                    
                <line x1="97" y1="225.5" x2="97" y2="255.5"
                style="fill:#a5d6a7; stroke:#444; stroke-width:1" />
                <line x1="228.39999999999998" y1="225.5" x2="228.39999999999998" y2="255.5"
                style="fill:#a5d6a7; stroke:#444; stroke-width:1" />
             
                <title>constructor()</title>
            <text x="112" y="245.5"
                font-family="monospace" font-size="13" fill="#222">
                <tspan x="112" y="245.5">constructor()</tspan>
            </text>
                
            </g>
                <g>
                   <rect x="124" y="274"
            width="248.4" height="30"
            rx="3" ry="3"
            style="fill:#90caf9; stroke:#444; stroke-width:1" />
                   <title>this.registered_modules = []</title>
            <text x="139" y="294"
                font-family="monospace" font-size="13" fill="#222">
                <tspan x="139" y="294">this.registered_modules = []</tspan>
            </text>
                   
                   
                </g>
                <g>
                   <rect x="124" y="322.5"
            width="162.6" height="30"
            rx="3" ry="3"
            style="fill:#90caf9; stroke:#444; stroke-width:1" />
                   <title>this.states = {*}</title>
            <text x="139" y="342.5"
                font-family="monospace" font-size="13" fill="#222">
                <tspan x="139" y="342.5">this.states = {*}</tspan>
            </text>
                   
                   
                </g>
            <g>
                <rect x="87" y="386"
            width="135.8" height="30"
            style="fill:#a5d6a7; stroke:#444; stroke-width:1" />
                    
                <line x1="97" y1="386" x2="97" y2="416"
                style="fill:#a5d6a7; stroke:#444; stroke-width:1" />
                <line x1="212.8" y1="386" x2="212.8" y2="416"
                style="fill:#a5d6a7; stroke:#444; stroke-width:1" />
             
                <title>start(name)</title>
            <text x="112" y="406"
                font-family="monospace" font-size="13" fill="#222">
                <tspan x="112" y="406">start(name)</tspan>
            </text>
                
            </g>
                <g>
                   <rect x="124" y="434.5"
            width="217.2" height="30"
            rx="2" ry="2"
            style="fill:#C5E1A5; stroke:#444; stroke-width:1" />
                   <title>this.emit(&apos;start&apos;, name)</title>
            <text x="139" y="454.5"
                font-family="monospace" font-size="13" fill="#222">
                <tspan x="139" y="454.5">this.emit(&apos;start&apos;, name)</tspan>
            </text>
                   
                   
                </g>
            <g>
                <rect x="87" y="498"
            width="268.4" height="30"
            style="fill:#a5d6a7; stroke:#444; stroke-width:1" />
                    
                <line x1="97" y1="498" x2="97" y2="528"
                style="fill:#a5d6a7; stroke:#444; stroke-width:1" />
                <line x1="345.4" y1="498" x2="345.4" y2="528"
                style="fill:#a5d6a7; stroke:#444; stroke-width:1" />
             
                <title>send(variable, data, module)</title>
            <text x="112" y="518"
                font-family="monospace" font-size="13" fill="#222">
                <tspan x="112" y="518">send(variable, data, module)</tspan>
            </text>
                
            </g>
                <g>
                   <rect x="124" y="546.5"
            width="154.8" height="30"
            rx="3" ry="3"
            style="fill:#90caf9; stroke:#444; stroke-width:1" />
                   <title>let packet = {*}</title>
            <text x="139" y="566.5"
                font-family="monospace" font-size="13" fill="#222">
                <tspan x="139" y="566.5">let packet = {*}</tspan>
            </text>
                   
                   
                </g>
                <g>
                   <rect x="161" y="595"
            width="123.6" height="30"
            rx="2" ry="2"
            style="fill:#90caf9; stroke:#444; stroke-width:1" />
                   <title>sender: this</title>
            <text x="176" y="615"
                font-family="monospace" font-size="13" fill="#222">
                <tspan x="176" y="615">sender: this</tspan>
            </text>
                   
                   
                </g>
                <g>
                   <rect x="161" y="643.5"
            width="100.2" height="30"
            rx="2" ry="2"
            style="fill:#90caf9; stroke:#444; stroke-width:1" />
                   <title>data: {*}</title>
            <text x="176" y="663.5"
                font-family="monospace" font-size="13" fill="#222">
                <tspan x="176" y="663.5">data: {*}</tspan>
            </text>
                   
                   
                </g>
                <g>
                   <rect x="124" y="692"
            width="248.4" height="30"
            rx="3" ry="3"
            style="fill:#90caf9; stroke:#444; stroke-width:1" />
                   <title>packet.data[variable] = data</title>
            <text x="139" y="712"
                font-family="monospace" font-size="13" fill="#222">
                <tspan x="139" y="712">packet.data[variable] = data</tspan>
            </text>
                   
                   
                </g>
                <g>
                   <rect x="124" y="740.5"
            width="178.2" height="30"
            rx="2" ry="2"
            style="fill:#C5E1A5; stroke:#444; stroke-width:1" />
                   <title>module.emit(packet)</title>
            <text x="139" y="760.5"
                font-family="monospace" font-size="13" fill="#222">
                <tspan x="139" y="760.5">module.emit(packet)</tspan>
            </text>
                   
                   
                </g>
                <g>
                   <rect x="124" y="789"
            width="310.8" height="30"
            rx="2" ry="2"
            style="fill:#C5E1A5; stroke:#444; stroke-width:1" />
                   <title>this.registered_modules.forEach(*())</title>
            <text x="139" y="809"
                font-family="monospace" font-size="13" fill="#222">
                <tspan x="139" y="809">this.registered_modules.forEach(*())</tspan>
            </text>
                   
                   
                </g>
            <g>
                <rect x="161" y="837.5"
            width="135.8" height="30"
            style="fill:#a5d6a7; stroke:#444; stroke-width:1" />
                    
                <line x1="171" y1="837.5" x2="171" y2="867.5"
                style="fill:#a5d6a7; stroke:#444; stroke-width:1" />
                <line x1="286.8" y1="837.5" x2="286.8" y2="867.5"
                style="fill:#a5d6a7; stroke:#444; stroke-width:1" />
             
                <title>(module) =&gt;</title>
            <text x="186" y="857.5"
                font-family="monospace" font-size="13" fill="#222">
                <tspan x="186" y="857.5">(module) =&gt;</tspan>
            </text>
                
            </g>
                <g>
                   <rect x="198" y="886"
            width="232.79999999999998" height="30"
            rx="2" ry="2"
            style="fill:#C5E1A5; stroke:#444; stroke-width:1" />
                   <title>module.socket.emit(packet)</title>
            <text x="213" y="906"
                font-family="monospace" font-size="13" fill="#222">
                <tspan x="213" y="906">module.socket.emit(packet)</tspan>
            </text>
                   
                   
                </g>
            <g>
                <rect x="87" y="949.5"
            width="245" height="30"
            style="fill:#a5d6a7; stroke:#444; stroke-width:1" />
                    
                <line x1="97" y1="949.5" x2="97" y2="979.5"
                style="fill:#a5d6a7; stroke:#444; stroke-width:1" />
                <line x1="322" y1="949.5" x2="322" y2="979.5"
                style="fill:#a5d6a7; stroke:#444; stroke-width:1" />
             
                <title>broadcast(variable, data)</title>
            <text x="112" y="969.5"
                font-family="monospace" font-size="13" fill="#222">
                <tspan x="112" y="969.5">broadcast(variable, data)</tspan>
            </text>
                
            </g>
                <g>
                   <rect x="124" y="998"
            width="256.2" height="30"
            rx="3" ry="3"
            style="fill:#90caf9; stroke:#444; stroke-width:1" />
                   <title>let packet = [variable, data]</title>
            <text x="139" y="1018"
                font-family="monospace" font-size="13" fill="#222">
                <tspan x="139" y="1018">let packet = [variable, data]</tspan>
            </text>
                   
                   
                </g>
                <g>
                   <rect x="124" y="1046.5"
            width="310.8" height="30"
            rx="2" ry="2"
            style="fill:#C5E1A5; stroke:#444; stroke-width:1" />
                   <title>this.registered_modules.forEach(*())</title>
            <text x="139" y="1066.5"
                font-family="monospace" font-size="13" fill="#222">
                <tspan x="139" y="1066.5">this.registered_modules.forEach(*())</tspan>
            </text>
                   
                   
                </g>
            <g>
                <rect x="161" y="1095"
            width="135.8" height="30"
            style="fill:#a5d6a7; stroke:#444; stroke-width:1" />
                    
                <line x1="171" y1="1095" x2="171" y2="1125"
                style="fill:#a5d6a7; stroke:#444; stroke-width:1" />
                <line x1="286.8" y1="1095" x2="286.8" y2="1125"
                style="fill:#a5d6a7; stroke:#444; stroke-width:1" />
             
                <title>(module) =&gt;</title>
            <text x="186" y="1115"
                font-family="monospace" font-size="13" fill="#222">
                <tspan x="186" y="1115">(module) =&gt;</tspan>
            </text>
                
            </g>
                <g>
                   <rect x="198" y="1143.5"
            width="443.4" height="30"
            rx="2" ry="2"
            style="fill:#C5E1A5; stroke:#444; stroke-width:1" />
                   <title>console.log(&quot;[AIR IMC] Broadcasting to &quot; + module.name)</title>
            <text x="213" y="1163.5"
                font-family="monospace" font-size="13" fill="#222">
                <tspan x="213" y="1163.5">console.log(&quot;[AIR IMC] Broadcasting to &quot; + module....</tspan>
            </text>
                   
                   
                </g>
                <g>
                   <rect x="198" y="1192"
            width="334.2" height="30"
            rx="2" ry="2"
            style="fill:#C5E1A5; stroke:#444; stroke-width:1" />
                   <title>module.socket.emit(&apos;broadcast&apos;, packet)</title>
            <text x="213" y="1212"
                font-family="monospace" font-size="13" fill="#222">
                <tspan x="213" y="1212">module.socket.emit(&apos;broadcast&apos;, packet)</tspan>
            </text>
                   
                   
                </g>
            <g>
                <rect x="87" y="1255.5"
            width="221.6" height="30"
            style="fill:#a5d6a7; stroke:#444; stroke-width:1" />
                    
                <line x1="97" y1="1255.5" x2="97" y2="1285.5"
                style="fill:#a5d6a7; stroke:#444; stroke-width:1" />
                <line x1="298.6" y1="1255.5" x2="298.6" y2="1285.5"
                style="fill:#a5d6a7; stroke:#444; stroke-width:1" />
             
                <title>initialize(fancy_name)</title>
            <text x="112" y="1275.5"
                font-family="monospace" font-size="13" fill="#222">
                <tspan x="112" y="1275.5">initialize(fancy_name)</tspan>
            </text>
                
            </g>
                <g>
                   <rect x="124" y="1304"
            width="193.79999999999998" height="30"
            rx="2" ry="2"
            style="fill:#C5E1A5; stroke:#444; stroke-width:1" />
                   <title>this.on(&apos;start&apos;, *())</title>
            <text x="139" y="1324"
                font-family="monospace" font-size="13" fill="#222">
                <tspan x="139" y="1324">this.on(&apos;start&apos;, *())</tspan>
            </text>
                   
                   
                </g>
            <g>
                <rect x="161" y="1352.5"
            width="120.2" height="30"
            style="fill:#a5d6a7; stroke:#444; stroke-width:1" />
                    
                <line x1="171" y1="1352.5" x2="171" y2="1382.5"
                style="fill:#a5d6a7; stroke:#444; stroke-width:1" />
                <line x1="271.2" y1="1352.5" x2="271.2" y2="1382.5"
                style="fill:#a5d6a7; stroke:#444; stroke-width:1" />
             
                <title>(name) =&gt;</title>
            <text x="186" y="1372.5"
                font-family="monospace" font-size="13" fill="#222">
                <tspan x="186" y="1372.5">(name) =&gt;</tspan>
            </text>
                
            </g>
                <g>
                   <rect x="198" y="1401"
            width="443.4" height="30"
            rx="2" ry="2"
            style="fill:#C5E1A5; stroke:#444; stroke-width:1" />
                   <title>console.log(&quot;[AIR IMC][&quot; + name + &quot;] Emitter started: &quot; + name)</title>
            <text x="213" y="1421"
                font-family="monospace" font-size="13" fill="#222">
                <tspan x="213" y="1421">console.log(&quot;[AIR IMC][&quot; + name + &quot;] Emitter start...</tspan>
            </text>
                   
                   
                </g>
                <g>
                   <rect x="124" y="1449.5"
            width="217.2" height="30"
            rx="2" ry="2"
            style="fill:#C5E1A5; stroke:#444; stroke-width:1" />
                   <title>this.on(&apos;register&apos;, *())</title>
            <text x="139" y="1469.5"
                font-family="monospace" font-size="13" fill="#222">
                <tspan x="139" y="1469.5">this.on(&apos;register&apos;, *())</tspan>
            </text>
                   
                   
                </g>
            <g>
                <rect x="161" y="1498"
            width="135.8" height="30"
            style="fill:#a5d6a7; stroke:#444; stroke-width:1" />
                    
                <line x1="171" y1="1498" x2="171" y2="1528"
                style="fill:#a5d6a7; stroke:#444; stroke-width:1" />
                <line x1="286.8" y1="1498" x2="286.8" y2="1528"
                style="fill:#a5d6a7; stroke:#444; stroke-width:1" />
             
                <title>(module) =&gt;</title>
            <text x="186" y="1518"
                font-family="monospace" font-size="13" fill="#222">
                <tspan x="186" y="1518">(module) =&gt;</tspan>
            </text>
                
            </g>
                <g>
                   <rect x="198" y="1546.5"
            width="310.8" height="30"
            rx="2" ry="2"
            style="fill:#C5E1A5; stroke:#444; stroke-width:1" />
                   <title>this.registered_modules.push(module)</title>
            <text x="213" y="1566.5"
                font-family="monospace" font-size="13" fill="#222">
                <tspan x="213" y="1566.5">this.registered_modules.push(module)</tspan>
            </text>
                   
                   
                </g>
                <g>
                   <rect x="124" y="1595"
            width="232.79999999999998" height="30"
            rx="2" ry="2"
            style="fill:#C5E1A5; stroke:#444; stroke-width:1" />
                   <title>this.on(&apos;unregister&apos;, *())</title>
            <text x="139" y="1615"
                font-family="monospace" font-size="13" fill="#222">
                <tspan x="139" y="1615">this.on(&apos;unregister&apos;, *())</tspan>
            </text>
                   
                   
                </g>
            <g>
                <rect x="161" y="1643.5"
            width="135.8" height="30"
            style="fill:#a5d6a7; stroke:#444; stroke-width:1" />
                    
                <line x1="171" y1="1643.5" x2="171" y2="1673.5"
                style="fill:#a5d6a7; stroke:#444; stroke-width:1" />
                <line x1="286.8" y1="1643.5" x2="286.8" y2="1673.5"
                style="fill:#a5d6a7; stroke:#444; stroke-width:1" />
             
                <title>(module) =&gt;</title>
            <text x="186" y="1663.5"
                font-family="monospace" font-size="13" fill="#222">
                <tspan x="186" y="1663.5">(module) =&gt;</tspan>
            </text>
                
            </g>
                <g>
                   <rect x="198" y="1692"
            width="443.4" height="30"
            rx="2" ry="2"
            style="fill:#C5E1A5; stroke:#444; stroke-width:1" />
                   <title>this.registered_modules.splice(this.registered_modules.indexOf(module), 1)</title>
            <text x="213" y="1712"
                font-family="monospace" font-size="13" fill="#222">
                <tspan x="213" y="1712">this.registered_modules.splice(this.registered_mod...</tspan>
            </text>
                   
                   
                </g>
                <g>
                   <rect x="124" y="1740.5"
            width="186" height="30"
            rx="2" ry="2"
            style="fill:#C5E1A5; stroke:#444; stroke-width:1" />
                   <title>this.on(&apos;send&apos;, *())</title>
            <text x="139" y="1760.5"
                font-family="monospace" font-size="13" fill="#222">
                <tspan x="139" y="1760.5">this.on(&apos;send&apos;, *())</tspan>
            </text>
                   
                   
                </g>
            <g>
                <rect x="161" y="1789"
            width="135.8" height="30"
            style="fill:#a5d6a7; stroke:#444; stroke-width:1" />
                    
                <line x1="171" y1="1789" x2="171" y2="1819"
                style="fill:#a5d6a7; stroke:#444; stroke-width:1" />
                <line x1="286.8" y1="1789" x2="286.8" y2="1819"
                style="fill:#a5d6a7; stroke:#444; stroke-width:1" />
             
                <title>(packet) =&gt;</title>
            <text x="186" y="1809"
                font-family="monospace" font-size="13" fill="#222">
                <tspan x="186" y="1809">(packet) =&gt;</tspan>
            </text>
                
            </g>
                <g>
                   <rect x="198" y="1837.5"
            width="357.59999999999997" height="30"
            rx="3" ry="3"
            style="fill:#90caf9; stroke:#444; stroke-width:1" />
                   <title>let variable = Object.keys(packet.data)[0]</title>
            <text x="213" y="1857.5"
                font-family="monospace" font-size="13" fill="#222">
                <tspan x="213" y="1857.5">let variable = Object.keys(packet.data)[0]</tspan>
            </text>
                   
                   
                </g>
                <g>
                   <rect x="198" y="1886"
            width="381" height="30"
            rx="3" ry="3"
            style="fill:#90caf9; stroke:#444; stroke-width:1" />
                   <title>this.states[variable] = packet.data[variable]</title>
            <text x="213" y="1906"
                font-family="monospace" font-size="13" fill="#222">
                <tspan x="213" y="1906">this.states[variable] = packet.data[variable]</tspan>
            </text>
                   
                   
                </g>
                <g>
                   <rect x="124" y="1934.5"
            width="225" height="30"
            rx="2" ry="2"
            style="fill:#C5E1A5; stroke:#444; stroke-width:1" />
                   <title>this.on(&apos;broadcast&apos;, *())</title>
            <text x="139" y="1954.5"
                font-family="monospace" font-size="13" fill="#222">
                <tspan x="139" y="1954.5">this.on(&apos;broadcast&apos;, *())</tspan>
            </text>
                   
                   
                </g>
            <g>
                <rect x="161" y="1983"
            width="135.8" height="30"
            style="fill:#a5d6a7; stroke:#444; stroke-width:1" />
                    
                <line x1="171" y1="1983" x2="171" y2="2013"
                style="fill:#a5d6a7; stroke:#444; stroke-width:1" />
                <line x1="286.8" y1="1983" x2="286.8" y2="2013"
                style="fill:#a5d6a7; stroke:#444; stroke-width:1" />
             
                <title>(packet) =&gt;</title>
            <text x="186" y="2003"
                font-family="monospace" font-size="13" fill="#222">
                <tspan x="186" y="2003">(packet) =&gt;</tspan>
            </text>
                
            </g>
                <g>
                   <rect x="198" y="2031.5"
            width="217.2" height="30"
            rx="3" ry="3"
            style="fill:#90caf9; stroke:#444; stroke-width:1" />
                   <title>let variable = packet[0]</title>
            <text x="213" y="2051.5"
                font-family="monospace" font-size="13" fill="#222">
                <tspan x="213" y="2051.5">let variable = packet[0]</tspan>
            </text>
                   
                   
                </g>
                <g>
                   <rect x="198" y="2080"
            width="193.79999999999998" height="30"
            rx="3" ry="3"
            style="fill:#90caf9; stroke:#444; stroke-width:1" />
                   <title>let value = packet[1]</title>
            <text x="213" y="2100"
                font-family="monospace" font-size="13" fill="#222">
                <tspan x="213" y="2100">let value = packet[1]</tspan>
            </text>
                   
                   
                </g>
                <g>
                   <rect x="198" y="2128.5"
            width="256.2" height="30"
            rx="3" ry="3"
            style="fill:#90caf9; stroke:#444; stroke-width:1" />
                   <title>this.states[variable] = value</title>
            <text x="213" y="2148.5"
                font-family="monospace" font-size="13" fill="#222">
                <tspan x="213" y="2148.5">this.states[variable] = value</tspan>
            </text>
                   
                   
                </g>
                <g>
                   <rect x="198" y="2177"
            width="443.4" height="30"
            rx="2" ry="2"
            style="fill:#C5E1A5; stroke:#444; stroke-width:1" />
                   <title>console.log(&quot;[AIR IMC][&quot; + fancy_name + &quot;] Broadcast received: &quot; + variable + &quot; = &quot; + value)</title>
            <text x="213" y="2197"
                font-family="monospace" font-size="13" fill="#222">
                <tspan x="213" y="2197">console.log(&quot;[AIR IMC][&quot; + fancy_name + &quot;] Broadca...</tspan>
            </text>
                   
                   
                </g>
                <g>
                   <rect x="124" y="2225.5"
            width="201.6" height="30"
            rx="2" ry="2"
            style="fill:#C5E1A5; stroke:#444; stroke-width:1" />
                   <title>this.start(fancy_name)</title>
            <text x="139" y="2245.5"
                font-family="monospace" font-size="13" fill="#222">
                <tspan x="139" y="2245.5">this.start(fancy_name)</tspan>
            </text>
                   
                   
                </g>
                <g>
                   <rect x="50" y="2274"
            width="279.6" height="30"
            rx="2" ry="2"
            style="fill:#C5E1A5; stroke:#444; stroke-width:1" />
                   <title>util.inherits(air, EventEmitter)</title>
            <text x="65" y="2294"
                font-family="monospace" font-size="13" fill="#222">
                <tspan x="65" y="2294">util.inherits(air, EventEmitter)</tspan>
            </text>
                   
                   
                </g>
                <g>
                   <rect x="50" y="2322.5"
            width="186" height="30"
            rx="3" ry="3"
            style="fill:#90caf9; stroke:#444; stroke-width:1" />
                   <title>module.exports = air</title>
            <text x="65" y="2342.5"
                font-family="monospace" font-size="13" fill="#222">
                <tspan x="65" y="2342.5">module.exports = air</tspan>
            </text>
                   
                   
                </g>
            <g>
               <rect x="25" y="13.75"
            width="216.6" height="24"
            style="fill:#fff59d; stroke:#444; stroke-width:1" />
               <circle cx="25" cy="25" r="15"
        style="fill:#fff59d; stroke:#444; stroke-width:1" />
               <title>Program: source module</title>
            <text x="55" y="30"
                font-family="monospace" font-size="13" fill="#222">
                <tspan x="55" y="30">Program: source module</tspan>
            </text>
            </g>
            <g>
               <path d="M25, 40 L25 76 Q25 80
                29 80
                L42 80 "
        style="fill:none; stroke:#444; stroke-width:1" />
               <path d="M42, 77 L50, 80 L42, 83 Z" 
        fill="#333" />
            </g>
            <g>
               <path d="M25, 40 L25 124.5 Q25 128.5
                29 128.5
                L42 128.5 "
        style="fill:none; stroke:#444; stroke-width:1" />
               <path d="M42, 125.5 L50, 128.5 L42, 131.5 Z" 
        fill="#333" />
            </g>
            <g>
               <path d="M25, 40 L25 188 Q25 192
                29 192
                L42 192 "
        style="fill:none; stroke:#444; stroke-width:1" />
               <path d="M42, 189 L50, 192 L42, 195 Z" 
        fill="#333" />
            </g>
            <g>
               <path d="M68.5, 207 L68.5 236.5 Q68.5 240.5
                72.5 240.5
                L79 240.5 "
        style="fill:none; stroke:#444; stroke-width:1" />
               <path d="M79, 237.5 L87, 240.5 L79, 243.5 Z" 
        fill="#333" />
            </g>
            <g>
               <path d="M105.5, 255.5 L105.5 285 Q105.5 289
                109.5 289
                L116 289 "
        style="fill:none; stroke:#444; stroke-width:1" />
               <path d="M116, 286 L124, 289 L116, 292 Z" 
        fill="#333" />
            </g>
            <g>
               <path d="M105.5, 255.5 L105.5 333.5 Q105.5 337.5
                109.5 337.5
                L116 337.5 "
        style="fill:none; stroke:#444; stroke-width:1" />
               <path d="M116, 334.5 L124, 337.5 L116, 340.5 Z" 
        fill="#333" />
            </g>
            <g>
               <path d="M68.5, 207 L68.5 397 Q68.5 401
                72.5 401
                L79 401 "
        style="fill:none; stroke:#444; stroke-width:1" />
               <path d="M79, 398 L87, 401 L79, 404 Z" 
        fill="#333" />
            </g>
            <g>
               <path d="M105.5, 416 L105.5 445.5 Q105.5 449.5
                109.5 449.5
                L116 449.5 "
        style="fill:none; stroke:#444; stroke-width:1" />
               <path d="M116, 446.5 L124, 449.5 L116, 452.5 Z" 
        fill="#333" />
            </g>
            <g>
               <path d="M68.5, 207 L68.5 509 Q68.5 513
                72.5 513
                L79 513 "
        style="fill:none; stroke:#444; stroke-width:1" />
               <path d="M79, 510 L87, 513 L79, 516 Z" 
        fill="#333" />
            </g>
            <g>
               <path d="M105.5, 528 L105.5 557.5 Q105.5 561.5
                109.5 561.5
                L116 561.5 "
        style="fill:none; stroke:#444; stroke-width:1" />
               <path d="M116, 558.5 L124, 561.5 L116, 564.5 Z" 
        fill="#333" />
            </g>
            <g>
               <path d="M142.5, 576.5 L142.5 606 Q142.5 610
                146.5 610
                L161 610 "
        style="fill:none; stroke:#444; stroke-width:1" />
               false
            </g>
            <g>
               <path d="M142.5, 576.5 L142.5 654.5 Q142.5 658.5
                146.5 658.5
                L161 658.5 "
        style="fill:none; stroke:#444; stroke-width:1" />
               false
            </g>
            <g>
               <path d="M105.5, 528 L105.5 703 Q105.5 707
                109.5 707
                L116 707 "
        style="fill:none; stroke:#444; stroke-width:1" />
               <path d="M116, 704 L124, 707 L116, 710 Z" 
        fill="#333" />
            </g>
            <g>
               <path d="M105.5, 528 L105.5 751.5 Q105.5 755.5
                109.5 755.5
                L116 755.5 "
        style="fill:none; stroke:#444; stroke-width:1" />
               <path d="M116, 752.5 L124, 755.5 L116, 758.5 Z" 
        fill="#333" />
            </g>
            <g>
               <path d="M105.5, 528 L105.5 800 Q105.5 804
                109.5 804
                L116 804 "
        style="fill:none; stroke:#444; stroke-width:1" />
               <path d="M116, 801 L124, 804 L116, 807 Z" 
        fill="#333" />
            </g>
            <g>
               <path d="M142.5, 819 L142.5 848.5 Q142.5 852.5
                146.5 852.5
                L161 852.5 "
        style="fill:none; stroke:#444; stroke-width:1" />
               false
            </g>
            <g>
               <path d="M179.5, 867.5 L179.5 897 Q179.5 901
                183.5 901
                L190 901 "
        style="fill:none; stroke:#444; stroke-width:1" />
               <path d="M190, 898 L198, 901 L190, 904 Z" 
        fill="#333" />
            </g>
            <g>
               <path d="M68.5, 207 L68.5 960.5 Q68.5 964.5
                72.5 964.5
                L79 964.5 "
        style="fill:none; stroke:#444; stroke-width:1" />
               <path d="M79, 961.5 L87, 964.5 L79, 967.5 Z" 
        fill="#333" />
            </g>
            <g>
               <path d="M105.5, 979.5 L105.5 1009 Q105.5 1013
                109.5 1013
                L116 1013 "
        style="fill:none; stroke:#444; stroke-width:1" />
               <path d="M116, 1010 L124, 1013 L116, 1016 Z" 
        fill="#333" />
            </g>
            <g>
               <path d="M105.5, 979.5 L105.5 1057.5 Q105.5 1061.5
                109.5 1061.5
                L116 1061.5 "
        style="fill:none; stroke:#444; stroke-width:1" />
               <path d="M116, 1058.5 L124, 1061.5 L116, 1064.5 Z" 
        fill="#333" />
            </g>
            <g>
               <path d="M142.5, 1076.5 L142.5 1106 Q142.5 1110
                146.5 1110
                L161 1110 "
        style="fill:none; stroke:#444; stroke-width:1" />
               false
            </g>
            <g>
               <path d="M179.5, 1125 L179.5 1154.5 Q179.5 1158.5
                183.5 1158.5
                L190 1158.5 "
        style="fill:none; stroke:#444; stroke-width:1" />
               <path d="M190, 1155.5 L198, 1158.5 L190, 1161.5 Z" 
        fill="#333" />
            </g>
            <g>
               <path d="M179.5, 1125 L179.5 1203 Q179.5 1207
                183.5 1207
                L190 1207 "
        style="fill:none; stroke:#444; stroke-width:1" />
               <path d="M190, 1204 L198, 1207 L190, 1210 Z" 
        fill="#333" />
            </g>
            <g>
               <path d="M68.5, 207 L68.5 1266.5 Q68.5 1270.5
                72.5 1270.5
                L79 1270.5 "
        style="fill:none; stroke:#444; stroke-width:1" />
               <path d="M79, 1267.5 L87, 1270.5 L79, 1273.5 Z" 
        fill="#333" />
            </g>
            <g>
               <path d="M105.5, 1285.5 L105.5 1315 Q105.5 1319
                109.5 1319
                L116 1319 "
        style="fill:none; stroke:#444; stroke-width:1" />
               <path d="M116, 1316 L124, 1319 L116, 1322 Z" 
        fill="#333" />
            </g>
            <g>
               <path d="M142.5, 1334 L142.5 1363.5 Q142.5 1367.5
                146.5 1367.5
                L161 1367.5 "
        style="fill:none; stroke:#444; stroke-width:1" />
               false
            </g>
            <g>
               <path d="M179.5, 1382.5 L179.5 1412 Q179.5 1416
                183.5 1416
                L190 1416 "
        style="fill:none; stroke:#444; stroke-width:1" />
               <path d="M190, 1413 L198, 1416 L190, 1419 Z" 
        fill="#333" />
            </g>
            <g>
               <path d="M105.5, 1285.5 L105.5 1460.5 Q105.5 1464.5
                109.5 1464.5
                L116 1464.5 "
        style="fill:none; stroke:#444; stroke-width:1" />
               <path d="M116, 1461.5 L124, 1464.5 L116, 1467.5 Z" 
        fill="#333" />
            </g>
            <g>
               <path d="M142.5, 1479.5 L142.5 1509 Q142.5 1513
                146.5 1513
                L161 1513 "
        style="fill:none; stroke:#444; stroke-width:1" />
               false
            </g>
            <g>
               <path d="M179.5, 1528 L179.5 1557.5 Q179.5 1561.5
                183.5 1561.5
                L190 1561.5 "
        style="fill:none; stroke:#444; stroke-width:1" />
               <path d="M190, 1558.5 L198, 1561.5 L190, 1564.5 Z" 
        fill="#333" />
            </g>
            <g>
               <path d="M105.5, 1285.5 L105.5 1606 Q105.5 1610
                109.5 1610
                L116 1610 "
        style="fill:none; stroke:#444; stroke-width:1" />
               <path d="M116, 1607 L124, 1610 L116, 1613 Z" 
        fill="#333" />
            </g>
            <g>
               <path d="M142.5, 1625 L142.5 1654.5 Q142.5 1658.5
                146.5 1658.5
                L161 1658.5 "
        style="fill:none; stroke:#444; stroke-width:1" />
               false
            </g>
            <g>
               <path d="M179.5, 1673.5 L179.5 1703 Q179.5 1707
                183.5 1707
                L190 1707 "
        style="fill:none; stroke:#444; stroke-width:1" />
               <path d="M190, 1704 L198, 1707 L190, 1710 Z" 
        fill="#333" />
            </g>
            <g>
               <path d="M105.5, 1285.5 L105.5 1751.5 Q105.5 1755.5
                109.5 1755.5
                L116 1755.5 "
        style="fill:none; stroke:#444; stroke-width:1" />
               <path d="M116, 1752.5 L124, 1755.5 L116, 1758.5 Z" 
        fill="#333" />
            </g>
            <g>
               <path d="M142.5, 1770.5 L142.5 1800 Q142.5 1804
                146.5 1804
                L161 1804 "
        style="fill:none; stroke:#444; stroke-width:1" />
               false
            </g>
            <g>
               <path d="M179.5, 1819 L179.5 1848.5 Q179.5 1852.5
                183.5 1852.5
                L190 1852.5 "
        style="fill:none; stroke:#444; stroke-width:1" />
               <path d="M190, 1849.5 L198, 1852.5 L190, 1855.5 Z" 
        fill="#333" />
            </g>
            <g>
               <path d="M179.5, 1819 L179.5 1897 Q179.5 1901
                183.5 1901
                L190 1901 "
        style="fill:none; stroke:#444; stroke-width:1" />
               <path d="M190, 1898 L198, 1901 L190, 1904 Z" 
        fill="#333" />
            </g>
            <g>
               <path d="M105.5, 1285.5 L105.5 1945.5 Q105.5 1949.5
                109.5 1949.5
                L116 1949.5 "
        style="fill:none; stroke:#444; stroke-width:1" />
               <path d="M116, 1946.5 L124, 1949.5 L116, 1952.5 Z" 
        fill="#333" />
            </g>
            <g>
               <path d="M142.5, 1964.5 L142.5 1994 Q142.5 1998
                146.5 1998
                L161 1998 "
        style="fill:none; stroke:#444; stroke-width:1" />
               false
            </g>
            <g>
               <path d="M179.5, 2013 L179.5 2042.5 Q179.5 2046.5
                183.5 2046.5
                L190 2046.5 "
        style="fill:none; stroke:#444; stroke-width:1" />
               <path d="M190, 2043.5 L198, 2046.5 L190, 2049.5 Z" 
        fill="#333" />
            </g>
            <g>
               <path d="M179.5, 2013 L179.5 2091 Q179.5 2095
                183.5 2095
                L190 2095 "
        style="fill:none; stroke:#444; stroke-width:1" />
               <path d="M190, 2092 L198, 2095 L190, 2098 Z" 
        fill="#333" />
            </g>
            <g>
               <path d="M179.5, 2013 L179.5 2139.5 Q179.5 2143.5
                183.5 2143.5
                L190 2143.5 "
        style="fill:none; stroke:#444; stroke-width:1" />
               <path d="M190, 2140.5 L198, 2143.5 L190, 2146.5 Z" 
        fill="#333" />
            </g>
            <g>
               <path d="M179.5, 2013 L179.5 2188 Q179.5 2192
                183.5 2192
                L190 2192 "
        style="fill:none; stroke:#444; stroke-width:1" />
               <path d="M190, 2189 L198, 2192 L190, 2195 Z" 
        fill="#333" />
            </g>
            <g>
               <path d="M105.5, 1285.5 L105.5 2236.5 Q105.5 2240.5
                109.5 2240.5
                L116 2240.5 "
        style="fill:none; stroke:#444; stroke-width:1" />
               <path d="M116, 2237.5 L124, 2240.5 L116, 2243.5 Z" 
        fill="#333" />
            </g>
            <g>
               <path d="M25, 40 L25 2285 Q25 2289
                29 2289
                L42 2289 "
        style="fill:none; stroke:#444; stroke-width:1" />
               <path d="M42, 2286 L50, 2289 L42, 2292 Z" 
        fill="#333" />
            </g>
            <g>
               <path d="M25, 40 L25 2333.5 Q25 2337.5
                29 2337.5
                L42 2337.5 "
        style="fill:none; stroke:#444; stroke-width:1" />
               <path d="M42, 2334.5 L50, 2337.5 L42, 2340.5 Z" 
        fill="#333" />
            </g>
            </svg>