<!DOCTYPE svg PUBLIC "-//W3C//DTD SVG 1.1//EN" "http://www.w3.org/Graphics/SVG/1.1/DTD/svg11.dtd">
                <svg xmlns="http://www.w3.org/2000/svg" xmlns:xlink="http://www.w3.org/1999/xlink" 
                width="456" height="1296" shape-rendering="optimizeSpeed">
                
                <g>
                   <rect x="50" y="65"
            width="381" height="30"
            rx="3" ry="3"
            style="fill:#90caf9; stroke:#444; stroke-width:1" />
                   <title>const term = require(&quot;terminal-kit&quot;).terminal</title>
            <text x="65" y="85"
                font-family="monospace" font-size="13" fill="#222">
                <tspan x="65" y="85">const term = require(&quot;terminal-kit&quot;).terminal</tspan>
            </text>
                   
                   
                </g>
                <g>
                   <rect x="50" y="113.5"
            width="147" height="30"
            rx="3" ry="3"
            style="fill:#90caf9; stroke:#444; stroke-width:1" />
                   <title>let print = {*}</title>
            <text x="65" y="133.5"
                font-family="monospace" font-size="13" fill="#222">
                <tspan x="65" y="133.5">let print = {*}</tspan>
            </text>
                   
                   
                </g>
                <g>
                   <rect x="87" y="162"
            width="69" height="30"
            rx="2" ry="2"
            style="fill:#90caf9; stroke:#444; stroke-width:1" />
                   <title>log: </title>
            <text x="102" y="182"
                font-family="monospace" font-size="13" fill="#222">
                <tspan x="102" y="182">log: </tspan>
            </text>
                   
                   
                </g>
            <g>
                <rect x="124" y="225.5"
            width="182.6" height="30"
            style="fill:#a5d6a7; stroke:#444; stroke-width:1" />
                    
                <line x1="134" y1="225.5" x2="134" y2="255.5"
                style="fill:#a5d6a7; stroke:#444; stroke-width:1" />
                <line x1="296.6" y1="225.5" x2="296.6" y2="255.5"
                style="fill:#a5d6a7; stroke:#444; stroke-width:1" />
             
                <title>function(message)</title>
            <text x="149" y="245.5"
                font-family="monospace" font-size="13" fill="#222">
                <tspan x="149" y="245.5">function(message)</tspan>
            </text>
                
            </g>
                <g>
                   <rect x="161" y="274"
            width="139.2" height="30"
            rx="2" ry="2"
            style="fill:#C5E1A5; stroke:#444; stroke-width:1" />
                   <title>term(&apos;[INFO]&apos;)</title>
            <text x="176" y="294"
                font-family="monospace" font-size="13" fill="#222">
                <tspan x="176" y="294">term(&apos;[INFO]&apos;)</tspan>
            </text>
                   
                   
                </g>
                <g>
                   <rect x="161" y="322.5"
            width="131.39999999999998" height="30"
            rx="2" ry="2"
            style="fill:#C5E1A5; stroke:#444; stroke-width:1" />
                   <title>term(message)</title>
            <text x="176" y="342.5"
                font-family="monospace" font-size="13" fill="#222">
                <tspan x="176" y="342.5">term(message)</tspan>
            </text>
                   
                   
                </g>
                <g>
                   <rect x="161" y="371"
            width="92.4" height="30"
            rx="2" ry="2"
            style="fill:#C5E1A5; stroke:#444; stroke-width:1" />
                   <title>term(&apos;
&apos;)</title>
            <text x="176" y="391"
                font-family="monospace" font-size="13" fill="#222">
                <tspan x="176" y="391">term(&apos;
&apos;)</tspan>
            </text>
                   
                   
                </g>
                <g>
                   <rect x="87" y="419.5"
            width="76.8" height="30"
            rx="2" ry="2"
            style="fill:#90caf9; stroke:#444; stroke-width:1" />
                   <title>warn: </title>
            <text x="102" y="439.5"
                font-family="monospace" font-size="13" fill="#222">
                <tspan x="102" y="439.5">warn: </tspan>
            </text>
                   
                   
                </g>
            <g>
                <rect x="124" y="483"
            width="182.6" height="30"
            style="fill:#a5d6a7; stroke:#444; stroke-width:1" />
                    
                <line x1="134" y1="483" x2="134" y2="513"
                style="fill:#a5d6a7; stroke:#444; stroke-width:1" />
                <line x1="296.6" y1="483" x2="296.6" y2="513"
                style="fill:#a5d6a7; stroke:#444; stroke-width:1" />
             
                <title>function(message)</title>
            <text x="149" y="503"
                font-family="monospace" font-size="13" fill="#222">
                <tspan x="149" y="503">function(message)</tspan>
            </text>
                
            </g>
                <g>
                   <rect x="161" y="531.5"
            width="139.2" height="30"
            rx="2" ry="2"
            style="fill:#C5E1A5; stroke:#444; stroke-width:1" />
                   <title>term(&apos;[WARN]&apos;)</title>
            <text x="176" y="551.5"
                font-family="monospace" font-size="13" fill="#222">
                <tspan x="176" y="551.5">term(&apos;[WARN]&apos;)</tspan>
            </text>
                   
                   
                </g>
                <g>
                   <rect x="161" y="580"
            width="131.39999999999998" height="30"
            rx="2" ry="2"
            style="fill:#C5E1A5; stroke:#444; stroke-width:1" />
                   <title>term(message)</title>
            <text x="176" y="600"
                font-family="monospace" font-size="13" fill="#222">
                <tspan x="176" y="600">term(message)</tspan>
            </text>
                   
                   
                </g>
                <g>
                   <rect x="161" y="628.5"
            width="92.4" height="30"
            rx="2" ry="2"
            style="fill:#C5E1A5; stroke:#444; stroke-width:1" />
                   <title>term(&apos;
&apos;)</title>
            <text x="176" y="648.5"
                font-family="monospace" font-size="13" fill="#222">
                <tspan x="176" y="648.5">term(&apos;
&apos;)</tspan>
            </text>
                   
                   
                </g>
                <g>
                   <rect x="87" y="677"
            width="84.6" height="30"
            rx="2" ry="2"
            style="fill:#90caf9; stroke:#444; stroke-width:1" />
                   <title>error: </title>
            <text x="102" y="697"
                font-family="monospace" font-size="13" fill="#222">
                <tspan x="102" y="697">error: </tspan>
            </text>
                   
                   
                </g>
            <g>
                <rect x="124" y="740.5"
            width="182.6" height="30"
            style="fill:#a5d6a7; stroke:#444; stroke-width:1" />
                    
                <line x1="134" y1="740.5" x2="134" y2="770.5"
                style="fill:#a5d6a7; stroke:#444; stroke-width:1" />
                <line x1="296.6" y1="740.5" x2="296.6" y2="770.5"
                style="fill:#a5d6a7; stroke:#444; stroke-width:1" />
             
                <title>function(message)</title>
            <text x="149" y="760.5"
                font-family="monospace" font-size="13" fill="#222">
                <tspan x="149" y="760.5">function(message)</tspan>
            </text>
                
            </g>
                <g>
                   <rect x="161" y="789"
            width="147" height="30"
            rx="2" ry="2"
            style="fill:#C5E1A5; stroke:#444; stroke-width:1" />
                   <title>term(&apos;[ERROR]&apos;)</title>
            <text x="176" y="809"
                font-family="monospace" font-size="13" fill="#222">
                <tspan x="176" y="809">term(&apos;[ERROR]&apos;)</tspan>
            </text>
                   
                   
                </g>
                <g>
                   <rect x="161" y="837.5"
            width="131.39999999999998" height="30"
            rx="2" ry="2"
            style="fill:#C5E1A5; stroke:#444; stroke-width:1" />
                   <title>term(message)</title>
            <text x="176" y="857.5"
                font-family="monospace" font-size="13" fill="#222">
                <tspan x="176" y="857.5">term(message)</tspan>
            </text>
                   
                   
                </g>
                <g>
                   <rect x="161" y="886"
            width="92.4" height="30"
            rx="2" ry="2"
            style="fill:#C5E1A5; stroke:#444; stroke-width:1" />
                   <title>term(&apos;
&apos;)</title>
            <text x="176" y="906"
                font-family="monospace" font-size="13" fill="#222">
                <tspan x="176" y="906">term(&apos;
&apos;)</tspan>
            </text>
                   
                   
                </g>
                <g>
                   <rect x="87" y="934.5"
            width="108" height="30"
            rx="2" ry="2"
            style="fill:#90caf9; stroke:#444; stroke-width:1" />
                   <title>critical: </title>
            <text x="102" y="954.5"
                font-family="monospace" font-size="13" fill="#222">
                <tspan x="102" y="954.5">critical: </tspan>
            </text>
                   
                   
                </g>
            <g>
                <rect x="124" y="998"
            width="182.6" height="30"
            style="fill:#a5d6a7; stroke:#444; stroke-width:1" />
                    
                <line x1="134" y1="998" x2="134" y2="1028"
                style="fill:#a5d6a7; stroke:#444; stroke-width:1" />
                <line x1="296.6" y1="998" x2="296.6" y2="1028"
                style="fill:#a5d6a7; stroke:#444; stroke-width:1" />
             
                <title>function(message)</title>
            <text x="149" y="1018"
                font-family="monospace" font-size="13" fill="#222">
                <tspan x="149" y="1018">function(message)</tspan>
            </text>
                
            </g>
                <g>
                   <rect x="161" y="1046.5"
            width="170.4" height="30"
            rx="2" ry="2"
            style="fill:#C5E1A5; stroke:#444; stroke-width:1" />
                   <title>term(&apos;[CRITICAL]&apos;)</title>
            <text x="176" y="1066.5"
                font-family="monospace" font-size="13" fill="#222">
                <tspan x="176" y="1066.5">term(&apos;[CRITICAL]&apos;)</tspan>
            </text>
                   
                   
                </g>
                <g>
                   <rect x="161" y="1095"
            width="131.39999999999998" height="30"
            rx="2" ry="2"
            style="fill:#C5E1A5; stroke:#444; stroke-width:1" />
                   <title>term(message)</title>
            <text x="176" y="1115"
                font-family="monospace" font-size="13" fill="#222">
                <tspan x="176" y="1115">term(message)</tspan>
            </text>
                   
                   
                </g>
                <g>
                   <rect x="161" y="1143.5"
            width="92.4" height="30"
            rx="2" ry="2"
            style="fill:#C5E1A5; stroke:#444; stroke-width:1" />
                   <title>term(&apos;
&apos;)</title>
            <text x="176" y="1163.5"
                font-family="monospace" font-size="13" fill="#222">
                <tspan x="176" y="1163.5">term(&apos;
&apos;)</tspan>
            </text>
                   
                   
                </g>
                <g>
                   <rect x="50" y="1192"
            width="186" height="30"
            rx="3" ry="3"
            style="fill:#90caf9; stroke:#444; stroke-width:1" />
                   <title>module.exports = {*}</title>
            <text x="65" y="1212"
                font-family="monospace" font-size="13" fill="#222">
                <tspan x="65" y="1212">module.exports = {*}</tspan>
            </text>
                   
                   
                </g>
                <g>
                   <rect x="87" y="1240.5"
            width="69" height="30"
            rx="2" ry="2"
            style="fill:#90caf9; stroke:#444; stroke-width:1" />
                   <title>print</title>
            <text x="102" y="1260.5"
                font-family="monospace" font-size="13" fill="#222">
                <tspan x="102" y="1260.5">print</tspan>
            </text>
                   
                   
                </g>
            <g>
               <rect x="25" y="13.75"
            width="216.6" height="24"
            style="fill:#fff59d; stroke:#444; stroke-width:1" />
               <circle cx="25" cy="25" r="15"
        style="fill:#fff59d; stroke:#444; stroke-width:1" />
               <title>Program: source module</title>
            <text x="55" y="30"
                font-family="monospace" font-size="13" fill="#222">
                <tspan x="55" y="30">Program: source module</tspan>
            </text>
            </g>
            <g>
               <path d="M25, 40 L25 76 Q25 80
                29 80
                L42 80 "
        style="fill:none; stroke:#444; stroke-width:1" />
               <path d="M42, 77 L50, 80 L42, 83 Z" 
        fill="#333" />
            </g>
            <g>
               <path d="M25, 40 L25 124.5 Q25 128.5
                29 128.5
                L42 128.5 "
        style="fill:none; stroke:#444; stroke-width:1" />
               <path d="M42, 125.5 L50, 128.5 L42, 131.5 Z" 
        fill="#333" />
            </g>
            <g>
               <path d="M68.5, 143.5 L68.5 173 Q68.5 177
                72.5 177
                L87 177 "
        style="fill:none; stroke:#444; stroke-width:1" />
               false
            </g>
            <g>
               <path d="M105.5, 192 L105.5 236.5 Q105.5 240.5
                109.5 240.5
                L116 240.5 "
        style="fill:none; stroke:#444; stroke-width:1" />
               <path d="M116, 237.5 L124, 240.5 L116, 243.5 Z" 
        fill="#333" />
            </g>
            <g>
               <path d="M142.5, 255.5 L142.5 285 Q142.5 289
                146.5 289
                L153 289 "
        style="fill:none; stroke:#444; stroke-width:1" />
               <path d="M153, 286 L161, 289 L153, 292 Z" 
        fill="#333" />
            </g>
            <g>
               <path d="M142.5, 255.5 L142.5 333.5 Q142.5 337.5
                146.5 337.5
                L153 337.5 "
        style="fill:none; stroke:#444; stroke-width:1" />
               <path d="M153, 334.5 L161, 337.5 L153, 340.5 Z" 
        fill="#333" />
            </g>
            <g>
               <path d="M142.5, 255.5 L142.5 382 Q142.5 386
                146.5 386
                L153 386 "
        style="fill:none; stroke:#444; stroke-width:1" />
               <path d="M153, 383 L161, 386 L153, 389 Z" 
        fill="#333" />
            </g>
            <g>
               <path d="M68.5, 143.5 L68.5 430.5 Q68.5 434.5
                72.5 434.5
                L87 434.5 "
        style="fill:none; stroke:#444; stroke-width:1" />
               false
            </g>
            <g>
               <path d="M105.5, 449.5 L105.5 494 Q105.5 498
                109.5 498
                L116 498 "
        style="fill:none; stroke:#444; stroke-width:1" />
               <path d="M116, 495 L124, 498 L116, 501 Z" 
        fill="#333" />
            </g>
            <g>
               <path d="M142.5, 513 L142.5 542.5 Q142.5 546.5
                146.5 546.5
                L153 546.5 "
        style="fill:none; stroke:#444; stroke-width:1" />
               <path d="M153, 543.5 L161, 546.5 L153, 549.5 Z" 
        fill="#333" />
            </g>
            <g>
               <path d="M142.5, 513 L142.5 591 Q142.5 595
                146.5 595
                L153 595 "
        style="fill:none; stroke:#444; stroke-width:1" />
               <path d="M153, 592 L161, 595 L153, 598 Z" 
        fill="#333" />
            </g>
            <g>
               <path d="M142.5, 513 L142.5 639.5 Q142.5 643.5
                146.5 643.5
                L153 643.5 "
        style="fill:none; stroke:#444; stroke-width:1" />
               <path d="M153, 640.5 L161, 643.5 L153, 646.5 Z" 
        fill="#333" />
            </g>
            <g>
               <path d="M68.5, 143.5 L68.5 688 Q68.5 692
                72.5 692
                L87 692 "
        style="fill:none; stroke:#444; stroke-width:1" />
               false
            </g>
            <g>
               <path d="M105.5, 707 L105.5 751.5 Q105.5 755.5
                109.5 755.5
                L116 755.5 "
        style="fill:none; stroke:#444; stroke-width:1" />
               <path d="M116, 752.5 L124, 755.5 L116, 758.5 Z" 
        fill="#333" />
            </g>
            <g>
               <path d="M142.5, 770.5 L142.5 800 Q142.5 804
                146.5 804
                L153 804 "
        style="fill:none; stroke:#444; stroke-width:1" />
               <path d="M153, 801 L161, 804 L153, 807 Z" 
        fill="#333" />
            </g>
            <g>
               <path d="M142.5, 770.5 L142.5 848.5 Q142.5 852.5
                146.5 852.5
                L153 852.5 "
        style="fill:none; stroke:#444; stroke-width:1" />
               <path d="M153, 849.5 L161, 852.5 L153, 855.5 Z" 
        fill="#333" />
            </g>
            <g>
               <path d="M142.5, 770.5 L142.5 897 Q142.5 901
                146.5 901
                L153 901 "
        style="fill:none; stroke:#444; stroke-width:1" />
               <path d="M153, 898 L161, 901 L153, 904 Z" 
        fill="#333" />
            </g>
            <g>
               <path d="M68.5, 143.5 L68.5 945.5 Q68.5 949.5
                72.5 949.5
                L87 949.5 "
        style="fill:none; stroke:#444; stroke-width:1" />
               false
            </g>
            <g>
               <path d="M105.5, 964.5 L105.5 1009 Q105.5 1013
                109.5 1013
                L116 1013 "
        style="fill:none; stroke:#444; stroke-width:1" />
               <path d="M116, 1010 L124, 1013 L116, 1016 Z" 
        fill="#333" />
            </g>
            <g>
               <path d="M142.5, 1028 L142.5 1057.5 Q142.5 1061.5
                146.5 1061.5
                L153 1061.5 "
        style="fill:none; stroke:#444; stroke-width:1" />
               <path d="M153, 1058.5 L161, 1061.5 L153, 1064.5 Z" 
        fill="#333" />
            </g>
            <g>
               <path d="M142.5, 1028 L142.5 1106 Q142.5 1110
                146.5 1110
                L153 1110 "
        style="fill:none; stroke:#444; stroke-width:1" />
               <path d="M153, 1107 L161, 1110 L153, 1113 Z" 
        fill="#333" />
            </g>
            <g>
               <path d="M142.5, 1028 L142.5 1154.5 Q142.5 1158.5
                146.5 1158.5
                L153 1158.5 "
        style="fill:none; stroke:#444; stroke-width:1" />
               <path d="M153, 1155.5 L161, 1158.5 L153, 1161.5 Z" 
        fill="#333" />
            </g>
            <g>
               <path d="M25, 40 L25 1203 Q25 1207
                29 1207
                L42 1207 "
        style="fill:none; stroke:#444; stroke-width:1" />
               <path d="M42, 1204 L50, 1207 L42, 1210 Z" 
        fill="#333" />
            </g>
            <g>
               <path d="M68.5, 1222 L68.5 1251.5 Q68.5 1255.5
                72.5 1255.5
                L87 1255.5 "
        style="fill:none; stroke:#444; stroke-width:1" />
               false
            </g>
            </svg>