<!DOCTYPE svg PUBLIC "-//W3C//DTD SVG 1.1//EN" "http://www.w3.org/Graphics/SVG/1.1/DTD/svg11.dtd">
                <svg xmlns="http://www.w3.org/2000/svg" xmlns:xlink="http://www.w3.org/1999/xlink" 
                width="515" height="1558" shape-rendering="optimizeSpeed">
                
                <g>
                   <rect x="50" y="65"
            width="162.6" height="30"
            rx="3" ry="3"
            style="fill:#90caf9; stroke:#444; stroke-width:1" />
                   <title>var peerlist = []</title>
            <text x="65" y="85"
                font-family="monospace" font-size="13" fill="#222">
                <tspan x="65" y="85">var peerlist = []</tspan>
            </text>
                   
                   
                </g>
            <g>
                <rect x="50" y="128.5"
            width="135.8" height="30"
            style="fill:#80cbc4; stroke:#444; stroke-width:1" />
                    
                <line x1="60" y1="128.5" x2="60" y2="158.5"
                style="fill:#80cbc4; stroke:#444; stroke-width:1" />
                <line x1="175.8" y1="128.5" x2="175.8" y2="158.5"
                style="fill:#80cbc4; stroke:#444; stroke-width:1" />
             
                <title>class Peer </title>
            <text x="75" y="148.5"
                font-family="monospace" font-size="13" fill="#222">
                <tspan x="75" y="148.5">class Peer </tspan>
            </text>
                
            </g>
            <g>
                <rect x="87" y="177"
            width="151.39999999999998" height="30"
            style="fill:#a5d6a7; stroke:#444; stroke-width:1" />
                    
                <line x1="97" y1="177" x2="97" y2="207"
                style="fill:#a5d6a7; stroke:#444; stroke-width:1" />
                <line x1="228.39999999999998" y1="177" x2="228.39999999999998" y2="207"
                style="fill:#a5d6a7; stroke:#444; stroke-width:1" />
             
                <title>constructor()</title>
            <text x="112" y="197"
                font-family="monospace" font-size="13" fill="#222">
                <tspan x="112" y="197">constructor()</tspan>
            </text>
                
            </g>
                <g>
                   <rect x="124" y="225.5"
            width="256.2" height="30"
            rx="3" ry="3"
            style="fill:#90caf9; stroke:#444; stroke-width:1" />
                   <title>this.connection_string = null</title>
            <text x="139" y="245.5"
                font-family="monospace" font-size="13" fill="#222">
                <tspan x="139" y="245.5">this.connection_string = null</tspan>
            </text>
                   
                   
                </g>
                <g>
                   <rect x="124" y="274"
            width="170.4" height="30"
            rx="3" ry="3"
            style="fill:#90caf9; stroke:#444; stroke-width:1" />
                   <title>this.socket = null</title>
            <text x="139" y="294"
                font-family="monospace" font-size="13" fill="#222">
                <tspan x="139" y="294">this.socket = null</tspan>
            </text>
                   
                   
                </g>
                <g>
                   <rect x="124" y="322.5"
            width="186" height="30"
            rx="3" ry="3"
            style="fill:#90caf9; stroke:#444; stroke-width:1" />
                   <title>this.identity = null</title>
            <text x="139" y="342.5"
                font-family="monospace" font-size="13" fill="#222">
                <tspan x="139" y="342.5">this.identity = null</tspan>
            </text>
                   
                   
                </g>
            <g>
                <rect x="87" y="386"
            width="354.2" height="30"
            style="fill:#a5d6a7; stroke:#444; stroke-width:1" />
                    
                <line x1="97" y1="386" x2="97" y2="416"
                style="fill:#a5d6a7; stroke:#444; stroke-width:1" />
                <line x1="431.2" y1="386" x2="431.2" y2="416"
                style="fill:#a5d6a7; stroke:#444; stroke-width:1" />
             
                <title>setConnectionString(_connection_string)</title>
            <text x="112" y="406"
                font-family="monospace" font-size="13" fill="#222">
                <tspan x="112" y="406">setConnectionString(_connection_string)</tspan>
            </text>
                
            </g>
                <g>
                   <rect x="124" y="434.5"
            width="365.4" height="30"
            rx="3" ry="3"
            style="fill:#90caf9; stroke:#444; stroke-width:1" />
                   <title>this.connection_string = _connection_string</title>
            <text x="139" y="454.5"
                font-family="monospace" font-size="13" fill="#222">
                <tspan x="139" y="454.5">this.connection_string = _connection_string</tspan>
            </text>
                   
                   
                </g>
            <g>
                <rect x="87" y="498"
            width="190.4" height="30"
            style="fill:#a5d6a7; stroke:#444; stroke-width:1" />
                    
                <line x1="97" y1="498" x2="97" y2="528"
                style="fill:#a5d6a7; stroke:#444; stroke-width:1" />
                <line x1="267.4" y1="498" x2="267.4" y2="528"
                style="fill:#a5d6a7; stroke:#444; stroke-width:1" />
             
                <title>setSocket(_socket)</title>
            <text x="112" y="518"
                font-family="monospace" font-size="13" fill="#222">
                <tspan x="112" y="518">setSocket(_socket)</tspan>
            </text>
                
            </g>
                <g>
                   <rect x="124" y="546.5"
            width="193.79999999999998" height="30"
            rx="3" ry="3"
            style="fill:#90caf9; stroke:#444; stroke-width:1" />
                   <title>this.socket = _socket</title>
            <text x="139" y="566.5"
                font-family="monospace" font-size="13" fill="#222">
                <tspan x="139" y="566.5">this.socket = _socket</tspan>
            </text>
                   
                   
                </g>
            <g>
                <rect x="87" y="610"
            width="221.6" height="30"
            style="fill:#a5d6a7; stroke:#444; stroke-width:1" />
                    
                <line x1="97" y1="610" x2="97" y2="640"
                style="fill:#a5d6a7; stroke:#444; stroke-width:1" />
                <line x1="298.6" y1="610" x2="298.6" y2="640"
                style="fill:#a5d6a7; stroke:#444; stroke-width:1" />
             
                <title>setIdentity(_identity)</title>
            <text x="112" y="630"
                font-family="monospace" font-size="13" fill="#222">
                <tspan x="112" y="630">setIdentity(_identity)</tspan>
            </text>
                
            </g>
                <g>
                   <rect x="124" y="658.5"
            width="225" height="30"
            rx="3" ry="3"
            style="fill:#90caf9; stroke:#444; stroke-width:1" />
                   <title>this.identity = _identity</title>
            <text x="139" y="678.5"
                font-family="monospace" font-size="13" fill="#222">
                <tspan x="139" y="678.5">this.identity = _identity</tspan>
            </text>
                   
                   
                </g>
                <g>
                   <rect x="50" y="707"
            width="162.6" height="30"
            rx="3" ry="3"
            style="fill:#90caf9; stroke:#444; stroke-width:1" />
                   <title>var methods = {*}</title>
            <text x="65" y="727"
                font-family="monospace" font-size="13" fill="#222">
                <tspan x="65" y="727">var methods = {*}</tspan>
            </text>
                   
                   
                </g>
            <g>
                <rect x="87" y="770.5"
            width="128" height="30"
            style="fill:#a5d6a7; stroke:#444; stroke-width:1" />
                    
                <line x1="97" y1="770.5" x2="97" y2="800.5"
                style="fill:#a5d6a7; stroke:#444; stroke-width:1" />
                <line x1="205" y1="770.5" x2="205" y2="800.5"
                style="fill:#a5d6a7; stroke:#444; stroke-width:1" />
             
                <title>getPeers()</title>
            <text x="112" y="790.5"
                font-family="monospace" font-size="13" fill="#222">
                <tspan x="112" y="790.5">getPeers()</tspan>
            </text>
                
            </g>
                <g>
                   <rect x="124" y="819"
            width="92.4" height="30"
            rx="3" ry="3"
            style="fill:#90caf9; stroke:#444; stroke-width:1" />
                   <title>getPeers</title>
            <text x="139" y="839"
                font-family="monospace" font-size="13" fill="#222">
                <tspan x="139" y="839">getPeers</tspan>
            </text>
                   
                   
                </g>
            <g>
                <rect x="124" y="867.5"
            width="147" height="30"
            rx="3" ry="3"
            style="fill:#90caf9; stroke:#444; stroke-width:1" />
                
                <line x1="271" y1="877.5" x2="276" y2="877.5"
                style="fill:#a5d6a7; stroke:#444; stroke-width:1" />
                
                <line x1="271" y1="887.5" x2="276" y2="887.5"
                style="fill:#a5d6a7; stroke:#444; stroke-width:1" />

                <path d="M276, 871.5 L292, 882.5 L276, 893.5 Z" 
        fill="#a5d6a7" stroke="#444" stroke-width="1" />
                             
                <title>return peerlist</title>
            <text x="139" y="887.5"
                font-family="monospace" font-size="13" fill="#222">
                <tspan x="139" y="887.5">return peerlist</tspan>
            </text>
                
            </g>
                <g>
                   <rect x="87" y="916"
            width="100.2" height="30"
            rx="2" ry="2"
            style="fill:#90caf9; stroke:#444; stroke-width:1" />
                   <title>addPeer: </title>
            <text x="102" y="936"
                font-family="monospace" font-size="13" fill="#222">
                <tspan x="102" y="936">addPeer: </tspan>
            </text>
                   
                   
                </g>
            <g>
                <rect x="124" y="979.5"
            width="159.2" height="30"
            style="fill:#a5d6a7; stroke:#444; stroke-width:1" />
                    
                <line x1="134" y1="979.5" x2="134" y2="1009.5"
                style="fill:#a5d6a7; stroke:#444; stroke-width:1" />
                <line x1="273.2" y1="979.5" x2="273.2" y2="1009.5"
                style="fill:#a5d6a7; stroke:#444; stroke-width:1" />
             
                <title>function(peer)</title>
            <text x="149" y="999.5"
                font-family="monospace" font-size="13" fill="#222">
                <tspan x="149" y="999.5">function(peer)</tspan>
            </text>
                
            </g>
                <g>
                   <rect x="161" y="1028"
            width="178.2" height="30"
            rx="2" ry="2"
            style="fill:#C5E1A5; stroke:#444; stroke-width:1" />
                   <title>peerlist.push(peer)</title>
            <text x="176" y="1048"
                font-family="monospace" font-size="13" fill="#222">
                <tspan x="176" y="1048">peerlist.push(peer)</tspan>
            </text>
                   
                   
                </g>
                <g>
                   <rect x="87" y="1076.5"
            width="123.6" height="30"
            rx="2" ry="2"
            style="fill:#90caf9; stroke:#444; stroke-width:1" />
                   <title>removePeer: </title>
            <text x="102" y="1096.5"
                font-family="monospace" font-size="13" fill="#222">
                <tspan x="102" y="1096.5">removePeer: </tspan>
            </text>
                   
                   
                </g>
            <g>
                <rect x="124" y="1140"
            width="159.2" height="30"
            style="fill:#a5d6a7; stroke:#444; stroke-width:1" />
                    
                <line x1="134" y1="1140" x2="134" y2="1170"
                style="fill:#a5d6a7; stroke:#444; stroke-width:1" />
                <line x1="273.2" y1="1140" x2="273.2" y2="1170"
                style="fill:#a5d6a7; stroke:#444; stroke-width:1" />
             
                <title>function(peer)</title>
            <text x="149" y="1160"
                font-family="monospace" font-size="13" fill="#222">
                <tspan x="149" y="1160">function(peer)</tspan>
            </text>
                
            </g>
                <g>
                   <rect x="161" y="1188.5"
            width="295.2" height="30"
            rx="3" ry="3"
            style="fill:#90caf9; stroke:#444; stroke-width:1" />
                   <title>let index = peerlist.indexOf(peer)</title>
            <text x="176" y="1208.5"
                font-family="monospace" font-size="13" fill="#222">
                <tspan x="176" y="1208.5">let index = peerlist.indexOf(peer)</tspan>
            </text>
                   
                   
                </g><g>
            <rect x="191" y="1252"
            width="153.6" height="30"
            rx="3" ry="3"
            style="fill:#ce93d8; stroke:#444; stroke-width:1" />                
            <polygon points="161,1267 191,1237 221,1267 191,1297"
            style="fill:#ce93d8; stroke:#444; stroke-width:1" />
            <title>(index &gt; -1)</title>
            <text x="236" y="1272"
                font-family="monospace" font-size="13" fill="#222">
                <tspan x="236" y="1272">(index &gt; -1)</tspan>
            </text>
            
            <text x="183.2" y="1272"
        font-family="monospace" font-size="13" fill="#222">if</text> <text x="198.8" y="1298.95"
        font-family="monospace" font-size="13" fill="#222">+</text> 
        </g>
                <g>
                   <rect x="211" y="1307"
            width="225" height="30"
            rx="2" ry="2"
            style="fill:#C5E1A5; stroke:#444; stroke-width:1" />
                   <title>peerlist.splice(index, 1)</title>
            <text x="226" y="1327"
                font-family="monospace" font-size="13" fill="#222">
                <tspan x="226" y="1327">peerlist.splice(index, 1)</tspan>
            </text>
                   
                   
                </g>
                <g>
                   <rect x="50" y="1357"
            width="186" height="30"
            rx="3" ry="3"
            style="fill:#90caf9; stroke:#444; stroke-width:1" />
                   <title>module.exports = {*}</title>
            <text x="65" y="1377"
                font-family="monospace" font-size="13" fill="#222">
                <tspan x="65" y="1377">module.exports = {*}</tspan>
            </text>
                   
                   
                </g>
                <g>
                   <rect x="87" y="1405.5"
            width="84.6" height="30"
            rx="2" ry="2"
            style="fill:#90caf9; stroke:#444; stroke-width:1" />
                   <title>methods</title>
            <text x="102" y="1425.5"
                font-family="monospace" font-size="13" fill="#222">
                <tspan x="102" y="1425.5">methods</tspan>
            </text>
                   
                   
                </g>
                <g>
                   <rect x="87" y="1454"
            width="92.4" height="30"
            rx="2" ry="2"
            style="fill:#90caf9; stroke:#444; stroke-width:1" />
                   <title>peerlist</title>
            <text x="102" y="1474"
                font-family="monospace" font-size="13" fill="#222">
                <tspan x="102" y="1474">peerlist</tspan>
            </text>
                   
                   
                </g>
                <g>
                   <rect x="87" y="1502.5"
            width="61.2" height="30"
            rx="2" ry="2"
            style="fill:#90caf9; stroke:#444; stroke-width:1" />
                   <title>Peer</title>
            <text x="102" y="1522.5"
                font-family="monospace" font-size="13" fill="#222">
                <tspan x="102" y="1522.5">Peer</tspan>
            </text>
                   
                   
                </g>
            <g>
               <rect x="25" y="13.75"
            width="216.6" height="24"
            style="fill:#fff59d; stroke:#444; stroke-width:1" />
               <circle cx="25" cy="25" r="15"
        style="fill:#fff59d; stroke:#444; stroke-width:1" />
               <title>Program: source module</title>
            <text x="55" y="30"
                font-family="monospace" font-size="13" fill="#222">
                <tspan x="55" y="30">Program: source module</tspan>
            </text>
            </g>
            <g>
               <path d="M25, 40 L25 76 Q25 80
                29 80
                L42 80 "
        style="fill:none; stroke:#444; stroke-width:1" />
               <path d="M42, 77 L50, 80 L42, 83 Z" 
        fill="#333" />
            </g>
            <g>
               <path d="M25, 40 L25 139.5 Q25 143.5
                29 143.5
                L42 143.5 "
        style="fill:none; stroke:#444; stroke-width:1" />
               <path d="M42, 140.5 L50, 143.5 L42, 146.5 Z" 
        fill="#333" />
            </g>
            <g>
               <path d="M68.5, 158.5 L68.5 188 Q68.5 192
                72.5 192
                L79 192 "
        style="fill:none; stroke:#444; stroke-width:1" />
               <path d="M79, 189 L87, 192 L79, 195 Z" 
        fill="#333" />
            </g>
            <g>
               <path d="M105.5, 207 L105.5 236.5 Q105.5 240.5
                109.5 240.5
                L116 240.5 "
        style="fill:none; stroke:#444; stroke-width:1" />
               <path d="M116, 237.5 L124, 240.5 L116, 243.5 Z" 
        fill="#333" />
            </g>
            <g>
               <path d="M105.5, 207 L105.5 285 Q105.5 289
                109.5 289
                L116 289 "
        style="fill:none; stroke:#444; stroke-width:1" />
               <path d="M116, 286 L124, 289 L116, 292 Z" 
        fill="#333" />
            </g>
            <g>
               <path d="M105.5, 207 L105.5 333.5 Q105.5 337.5
                109.5 337.5
                L116 337.5 "
        style="fill:none; stroke:#444; stroke-width:1" />
               <path d="M116, 334.5 L124, 337.5 L116, 340.5 Z" 
        fill="#333" />
            </g>
            <g>
               <path d="M68.5, 158.5 L68.5 397 Q68.5 401
                72.5 401
                L79 401 "
        style="fill:none; stroke:#444; stroke-width:1" />
               <path d="M79, 398 L87, 401 L79, 404 Z" 
        fill="#333" />
            </g>
            <g>
               <path d="M105.5, 416 L105.5 445.5 Q105.5 449.5
                109.5 449.5
                L116 449.5 "
        style="fill:none; stroke:#444; stroke-width:1" />
               <path d="M116, 446.5 L124, 449.5 L116, 452.5 Z" 
        fill="#333" />
            </g>
            <g>
               <path d="M68.5, 158.5 L68.5 509 Q68.5 513
                72.5 513
                L79 513 "
        style="fill:none; stroke:#444; stroke-width:1" />
               <path d="M79, 510 L87, 513 L79, 516 Z" 
        fill="#333" />
            </g>
            <g>
               <path d="M105.5, 528 L105.5 557.5 Q105.5 561.5
                109.5 561.5
                L116 561.5 "
        style="fill:none; stroke:#444; stroke-width:1" />
               <path d="M116, 558.5 L124, 561.5 L116, 564.5 Z" 
        fill="#333" />
            </g>
            <g>
               <path d="M68.5, 158.5 L68.5 621 Q68.5 625
                72.5 625
                L79 625 "
        style="fill:none; stroke:#444; stroke-width:1" />
               <path d="M79, 622 L87, 625 L79, 628 Z" 
        fill="#333" />
            </g>
            <g>
               <path d="M105.5, 640 L105.5 669.5 Q105.5 673.5
                109.5 673.5
                L116 673.5 "
        style="fill:none; stroke:#444; stroke-width:1" />
               <path d="M116, 670.5 L124, 673.5 L116, 676.5 Z" 
        fill="#333" />
            </g>
            <g>
               <path d="M25, 40 L25 718 Q25 722
                29 722
                L42 722 "
        style="fill:none; stroke:#444; stroke-width:1" />
               <path d="M42, 719 L50, 722 L42, 725 Z" 
        fill="#333" />
            </g>
            <g>
               <path d="M68.5, 737 L68.5 781.5 Q68.5 785.5
                72.5 785.5
                L87 785.5 "
        style="fill:none; stroke:#444; stroke-width:1" />
               false
            </g>
            <g>
               <path d="M105.5, 800.5 L105.5 830 Q105.5 834
                109.5 834
                L116 834 "
        style="fill:none; stroke:#444; stroke-width:1" />
               <path d="M116, 831 L124, 834 L116, 837 Z" 
        fill="#333" />
            </g>
            <g>
               <path d="M105.5, 800.5 L105.5 878.5 Q105.5 882.5
                109.5 882.5
                L116 882.5 "
        style="fill:none; stroke:#444; stroke-width:1" />
               <path d="M116, 879.5 L124, 882.5 L116, 885.5 Z" 
        fill="#333" />
            </g>
            <g>
               <path d="M68.5, 737 L68.5 927 Q68.5 931
                72.5 931
                L87 931 "
        style="fill:none; stroke:#444; stroke-width:1" />
               false
            </g>
            <g>
               <path d="M105.5, 946 L105.5 990.5 Q105.5 994.5
                109.5 994.5
                L116 994.5 "
        style="fill:none; stroke:#444; stroke-width:1" />
               <path d="M116, 991.5 L124, 994.5 L116, 997.5 Z" 
        fill="#333" />
            </g>
            <g>
               <path d="M142.5, 1009.5 L142.5 1039 Q142.5 1043
                146.5 1043
                L153 1043 "
        style="fill:none; stroke:#444; stroke-width:1" />
               <path d="M153, 1040 L161, 1043 L153, 1046 Z" 
        fill="#333" />
            </g>
            <g>
               <path d="M68.5, 737 L68.5 1087.5 Q68.5 1091.5
                72.5 1091.5
                L87 1091.5 "
        style="fill:none; stroke:#444; stroke-width:1" />
               false
            </g>
            <g>
               <path d="M105.5, 1106.5 L105.5 1151 Q105.5 1155
                109.5 1155
                L116 1155 "
        style="fill:none; stroke:#444; stroke-width:1" />
               <path d="M116, 1152 L124, 1155 L116, 1158 Z" 
        fill="#333" />
            </g>
            <g>
               <path d="M142.5, 1170 L142.5 1199.5 Q142.5 1203.5
                146.5 1203.5
                L153 1203.5 "
        style="fill:none; stroke:#444; stroke-width:1" />
               <path d="M153, 1200.5 L161, 1203.5 L153, 1206.5 Z" 
        fill="#333" />
            </g>
            <g>
               <path d="M142.5, 1170 L142.5 1263 Q142.5 1267
                146.5 1267
                L153 1267 "
        style="fill:none; stroke:#444; stroke-width:1" />
               <path d="M153, 1264 L161, 1267 L153, 1270 Z" 
        fill="#333" />
            </g>
            <g>
               <path d="M191, 1297 L191 1318 Q191 1322
                195 1322
                L203 1322 "
        style="fill:none; stroke:#444; stroke-width:1" />
               <path d="M203, 1319 L211, 1322 L203, 1325 Z" 
        fill="#333" />
            </g>
            <g>
               <path d="M25, 40 L25 1368 Q25 1372
                29 1372
                L42 1372 "
        style="fill:none; stroke:#444; stroke-width:1" />
               <path d="M42, 1369 L50, 1372 L42, 1375 Z" 
        fill="#333" />
            </g>
            <g>
               <path d="M68.5, 1387 L68.5 1416.5 Q68.5 1420.5
                72.5 1420.5
                L87 1420.5 "
        style="fill:none; stroke:#444; stroke-width:1" />
               false
            </g>
            <g>
               <path d="M68.5, 1387 L68.5 1465 Q68.5 1469
                72.5 1469
                L87 1469 "
        style="fill:none; stroke:#444; stroke-width:1" />
               false
            </g>
            <g>
               <path d="M68.5, 1387 L68.5 1513.5 Q68.5 1517.5
                72.5 1517.5
                L87 1517.5 "
        style="fill:none; stroke:#444; stroke-width:1" />
               false
            </g>
            </svg>