<!DOCTYPE svg PUBLIC "-//W3C//DTD SVG 1.1//EN" "http://www.w3.org/Graphics/SVG/1.1/DTD/svg11.dtd">
                <svg xmlns="http://www.w3.org/2000/svg" xmlns:xlink="http://www.w3.org/1999/xlink" 
                width="557" height="1373" shape-rendering="optimizeSpeed">
                
                <g>
                   <rect x="50" y="65"
            width="388.8" height="30"
            rx="3" ry="3"
            style="fill:#90caf9; stroke:#444; stroke-width:1" />
                   <title>var ellipticcurve = require(&apos;starkbank-ecdsa&apos;)</title>
            <text x="65" y="85"
                font-family="monospace" font-size="13" fill="#222">
                <tspan x="65" y="85">var ellipticcurve = require(&apos;starkbank-ecdsa&apos;)</tspan>
            </text>
                   
                   
                </g>
                <g>
                   <rect x="50" y="113.5"
            width="271.79999999999995" height="30"
            rx="3" ry="3"
            style="fill:#90caf9; stroke:#444; stroke-width:1" />
                   <title>var Ecdsa = ellipticcurve.Ecdsa</title>
            <text x="65" y="133.5"
                font-family="monospace" font-size="13" fill="#222">
                <tspan x="65" y="133.5">var Ecdsa = ellipticcurve.Ecdsa</tspan>
            </text>
                   
                   
                </g>
                <g>
                   <rect x="50" y="162"
            width="334.2" height="30"
            rx="3" ry="3"
            style="fill:#90caf9; stroke:#444; stroke-width:1" />
                   <title>var identity = require(&apos;./identity.js&apos;)</title>
            <text x="65" y="182"
                font-family="monospace" font-size="13" fill="#222">
                <tspan x="65" y="182">var identity = require(&apos;./identity.js&apos;)</tspan>
            </text>
                   
                   
                </g>
                <g>
                   <rect x="50" y="210.5"
            width="162.6" height="30"
            rx="3" ry="3"
            style="fill:#90caf9; stroke:#444; stroke-width:1" />
                   <title>var methods = {*}</title>
            <text x="65" y="230.5"
                font-family="monospace" font-size="13" fill="#222">
                <tspan x="65" y="230.5">var methods = {*}</tspan>
            </text>
                   
                   
                </g>
                <g>
                   <rect x="87" y="259"
            width="108" height="30"
            rx="2" ry="2"
            style="fill:#90caf9; stroke:#444; stroke-width:1" />
                   <title>sign: sign</title>
            <text x="102" y="279"
                font-family="monospace" font-size="13" fill="#222">
                <tspan x="102" y="279">sign: sign</tspan>
            </text>
                   
                   
                </g>
                <g>
                   <rect x="87" y="307.5"
            width="139.2" height="30"
            rx="2" ry="2"
            style="fill:#90caf9; stroke:#444; stroke-width:1" />
                   <title>verify: verify</title>
            <text x="102" y="327.5"
                font-family="monospace" font-size="13" fill="#222">
                <tspan x="102" y="327.5">verify: verify</tspan>
            </text>
                   
                   
                </g>
                <g>
                   <rect x="87" y="356"
            width="443.4" height="30"
            rx="2" ry="2"
            style="fill:#90caf9; stroke:#444; stroke-width:1" />
                   <title>sanityCheck: sanityCheck // NOTE All the &quot;tx&quot; parameters are Transaction objects as defined in chain.js
// NOTE privateKey and publicKey are ECDSA keys as specified in identity.js
// INFO Given a transaction, sign it with the private key of the sender
// Returns [success, result]</title>
            <text x="102" y="376"
                font-family="monospace" font-size="13" fill="#222">
                <tspan x="102" y="376">sanityCheck: sanityCheck // NOTE All the &quot;tx&quot; para...</tspan>
            </text>
                   
                   
                </g>
            <g>
                <rect x="50" y="419.5"
            width="276.2" height="30"
            style="fill:#a5d6a7; stroke:#444; stroke-width:1" />
                    
                <line x1="60" y1="419.5" x2="60" y2="449.5"
                style="fill:#a5d6a7; stroke:#444; stroke-width:1" />
                <line x1="316.2" y1="419.5" x2="316.2" y2="449.5"
                style="fill:#a5d6a7; stroke:#444; stroke-width:1" />
             
                <title>function sign(tx, privateKey)</title>
            <text x="75" y="439.5"
                font-family="monospace" font-size="13" fill="#222">
                <tspan x="75" y="439.5">function sign(tx, privateKey)</tspan>
            </text>
                
            </g><g>
            <rect x="117" y="483"
            width="161.39999999999998" height="30"
            rx="3" ry="3"
            style="fill:#ce93d8; stroke:#444; stroke-width:1" />                
            <polygon points="87,498 117,468 147,498 117,528"
            style="fill:#ce93d8; stroke:#444; stroke-width:1" />
            <title>(!tx.content)</title>
            <text x="162" y="503"
                font-family="monospace" font-size="13" fill="#222">
                <tspan x="162" y="503">(!tx.content)</tspan>
            </text>
            
            <text x="109.2" y="503"
        font-family="monospace" font-size="13" fill="#222">if</text> <text x="124.8" y="529.95"
        font-family="monospace" font-size="13" fill="#222">+</text> 
        </g>
            <g>
                <rect x="137" y="538"
            width="310.8" height="30"
            rx="3" ry="3"
            style="fill:#90caf9; stroke:#444; stroke-width:1" />
                
                <line x1="447.8" y1="548" x2="452.8" y2="548"
                style="fill:#a5d6a7; stroke:#444; stroke-width:1" />
                
                <line x1="447.8" y1="558" x2="452.8" y2="558"
                style="fill:#a5d6a7; stroke:#444; stroke-width:1" />

                <path d="M452.8, 542 L468.8, 553 L452.8, 564 Z" 
        fill="#a5d6a7" stroke="#444" stroke-width="1" />
                             
                <title>return [false, &quot;Missing tx.content&quot;]</title>
            <text x="152" y="558"
                font-family="monospace" font-size="13" fill="#222">
                <tspan x="152" y="558">return [false, &quot;Missing tx.content&quot;]</tspan>
            </text>
                
            </g>
                <g>
                   <rect x="87" y="588"
            width="443.4" height="30"
            rx="3" ry="3"
            style="fill:#90caf9; stroke:#444; stroke-width:1" />
                   <title>let _signature = identity.generate.ecdsa.sign(tx.content, privateKey)</title>
            <text x="102" y="608"
                font-family="monospace" font-size="13" fill="#222">
                <tspan x="102" y="608">let _signature = identity.generate.ecdsa.sign(tx.c...</tspan>
            </text>
                   
                   
                </g><g>
            <rect x="117" y="651.5"
            width="161.39999999999998" height="30"
            rx="3" ry="3"
            style="fill:#ce93d8; stroke:#444; stroke-width:1" />                
            <polygon points="87,666.5 117,636.5 147,666.5 117,696.5"
            style="fill:#ce93d8; stroke:#444; stroke-width:1" />
            <title>(!_signature)</title>
            <text x="162" y="671.5"
                font-family="monospace" font-size="13" fill="#222">
                <tspan x="162" y="671.5">(!_signature)</tspan>
            </text>
            
            <text x="109.2" y="671.5"
        font-family="monospace" font-size="13" fill="#222">if</text> <text x="124.8" y="698.45"
        font-family="monospace" font-size="13" fill="#222">+</text> 
        </g>
            <g>
                <rect x="137" y="706.5"
            width="373.2" height="30"
            rx="3" ry="3"
            style="fill:#90caf9; stroke:#444; stroke-width:1" />
                
                <line x1="510.2" y1="716.5" x2="515.2" y2="716.5"
                style="fill:#a5d6a7; stroke:#444; stroke-width:1" />
                
                <line x1="510.2" y1="726.5" x2="515.2" y2="726.5"
                style="fill:#a5d6a7; stroke:#444; stroke-width:1" />

                <path d="M515.2, 710.5 L531.2, 721.5 L515.2, 732.5 Z" 
        fill="#a5d6a7" stroke="#444" stroke-width="1" />
                             
                <title>return [false, &quot;Failed to sign transaction&quot;]</title>
            <text x="152" y="726.5"
                font-family="monospace" font-size="13" fill="#222">
                <tspan x="152" y="726.5">return [false, &quot;Failed to sign transaction&quot;]</tspan>
            </text>
                
            </g>
            <g>
                <rect x="87" y="756.5"
            width="225" height="30"
            rx="3" ry="3"
            style="fill:#90caf9; stroke:#444; stroke-width:1" />
                
                <line x1="312" y1="766.5" x2="317" y2="766.5"
                style="fill:#a5d6a7; stroke:#444; stroke-width:1" />
                
                <line x1="312" y1="776.5" x2="317" y2="776.5"
                style="fill:#a5d6a7; stroke:#444; stroke-width:1" />

                <path d="M317, 760.5 L333, 771.5 L317, 782.5 Z" 
        fill="#a5d6a7" stroke="#444" stroke-width="1" />
                             
                <title>return [true, _signature]</title>
            <text x="102" y="776.5"
                font-family="monospace" font-size="13" fill="#222">
                <tspan x="102" y="776.5">return [true, _signature]</tspan>
            </text>
                
            </g>
            <g>
                <rect x="50" y="820"
            width="198.2" height="30"
            style="fill:#a5d6a7; stroke:#444; stroke-width:1" />
                    
                <line x1="60" y1="820" x2="60" y2="850"
                style="fill:#a5d6a7; stroke:#444; stroke-width:1" />
                <line x1="238.2" y1="820" x2="238.2" y2="850"
                style="fill:#a5d6a7; stroke:#444; stroke-width:1" />
             
                <title>function verify(tx)</title>
            <text x="75" y="840"
                font-family="monospace" font-size="13" fill="#222">
                <tspan x="75" y="840">function verify(tx)</tspan>
            </text>
                
            </g><g>
            <rect x="117" y="883.5"
            width="161.39999999999998" height="30"
            rx="3" ry="3"
            style="fill:#ce93d8; stroke:#444; stroke-width:1" />                
            <polygon points="87,898.5 117,868.5 147,898.5 117,928.5"
            style="fill:#ce93d8; stroke:#444; stroke-width:1" />
            <title>(!tx.content)</title>
            <text x="162" y="903.5"
                font-family="monospace" font-size="13" fill="#222">
                <tspan x="162" y="903.5">(!tx.content)</tspan>
            </text>
            
            <text x="109.2" y="903.5"
        font-family="monospace" font-size="13" fill="#222">if</text> <text x="124.8" y="930.45"
        font-family="monospace" font-size="13" fill="#222">+</text> 
        </g>
            <g>
                <rect x="137" y="938.5"
            width="310.8" height="30"
            rx="3" ry="3"
            style="fill:#90caf9; stroke:#444; stroke-width:1" />
                
                <line x1="447.8" y1="948.5" x2="452.8" y2="948.5"
                style="fill:#a5d6a7; stroke:#444; stroke-width:1" />
                
                <line x1="447.8" y1="958.5" x2="452.8" y2="958.5"
                style="fill:#a5d6a7; stroke:#444; stroke-width:1" />

                <path d="M452.8, 942.5 L468.8, 953.5 L452.8, 964.5 Z" 
        fill="#a5d6a7" stroke="#444" stroke-width="1" />
                             
                <title>return [false, &quot;Missing tx.content&quot;]</title>
            <text x="152" y="958.5"
                font-family="monospace" font-size="13" fill="#222">
                <tspan x="152" y="958.5">return [false, &quot;Missing tx.content&quot;]</tspan>
            </text>
                
            </g><g>
            <rect x="117" y="1003.5"
            width="177" height="30"
            rx="3" ry="3"
            style="fill:#ce93d8; stroke:#444; stroke-width:1" />                
            <polygon points="87,1018.5 117,988.5 147,1018.5 117,1048.5"
            style="fill:#ce93d8; stroke:#444; stroke-width:1" />
            <title>(!tx.signature)</title>
            <text x="162" y="1023.5"
                font-family="monospace" font-size="13" fill="#222">
                <tspan x="162" y="1023.5">(!tx.signature)</tspan>
            </text>
            
            <text x="109.2" y="1023.5"
        font-family="monospace" font-size="13" fill="#222">if</text> <text x="124.8" y="1050.45"
        font-family="monospace" font-size="13" fill="#222">+</text> 
        </g>
            <g>
                <rect x="137" y="1058.5"
            width="326.4" height="30"
            rx="3" ry="3"
            style="fill:#90caf9; stroke:#444; stroke-width:1" />
                
                <line x1="463.4" y1="1068.5" x2="468.4" y2="1068.5"
                style="fill:#a5d6a7; stroke:#444; stroke-width:1" />
                
                <line x1="463.4" y1="1078.5" x2="468.4" y2="1078.5"
                style="fill:#a5d6a7; stroke:#444; stroke-width:1" />

                <path d="M468.4, 1062.5 L484.4, 1073.5 L468.4, 1084.5 Z" 
        fill="#a5d6a7" stroke="#444" stroke-width="1" />
                             
                <title>return [false, &quot;Missing tx.signature&quot;]</title>
            <text x="152" y="1078.5"
                font-family="monospace" font-size="13" fill="#222">
                <tspan x="152" y="1078.5">return [false, &quot;Missing tx.signature&quot;]</tspan>
            </text>
                
            </g>
                <g>
                   <rect x="87" y="1108.5"
            width="443.4" height="30"
            rx="3" ry="3"
            style="fill:#90caf9; stroke:#444; stroke-width:1" />
                   <title>let _verified = identity.generate.ecdsa.verify(tx.content, tx.signature, tx.from)</title>
            <text x="102" y="1128.5"
                font-family="monospace" font-size="13" fill="#222">
                <tspan x="102" y="1128.5">let _verified = identity.generate.ecdsa.verify(tx....</tspan>
            </text>
                   
                   
                </g>
            <g>
                <rect x="87" y="1157"
            width="342" height="30"
            rx="3" ry="3"
            style="fill:#90caf9; stroke:#444; stroke-width:1" />
                
                <line x1="429" y1="1167" x2="434" y2="1167"
                style="fill:#a5d6a7; stroke:#444; stroke-width:1" />
                
                <line x1="429" y1="1177" x2="434" y2="1177"
                style="fill:#a5d6a7; stroke:#444; stroke-width:1" />

                <path d="M434, 1161 L450, 1172 L434, 1183 Z" 
        fill="#a5d6a7" stroke="#444" stroke-width="1" />
                             
                <title>return [_verified, &quot;Result of verify()&quot;]</title>
            <text x="102" y="1177"
                font-family="monospace" font-size="13" fill="#222">
                <tspan x="102" y="1177">return [_verified, &quot;Result of verify()&quot;]</tspan>
            </text>
                
            </g>
            <g>
                <rect x="50" y="1220.5"
            width="237.2" height="30"
            style="fill:#a5d6a7; stroke:#444; stroke-width:1" />
                    
                <line x1="60" y1="1220.5" x2="60" y2="1250.5"
                style="fill:#a5d6a7; stroke:#444; stroke-width:1" />
                <line x1="277.2" y1="1220.5" x2="277.2" y2="1250.5"
                style="fill:#a5d6a7; stroke:#444; stroke-width:1" />
             
                <title>function sanityCheck(tx)</title>
            <text x="75" y="1240.5"
                font-family="monospace" font-size="13" fill="#222">
                <tspan x="75" y="1240.5">function sanityCheck(tx)</tspan>
            </text>
                
            </g>
                <g>
                   <rect x="50" y="1269"
            width="186" height="30"
            rx="3" ry="3"
            style="fill:#90caf9; stroke:#444; stroke-width:1" />
                   <title>module.exports = {*}</title>
            <text x="65" y="1289"
                font-family="monospace" font-size="13" fill="#222">
                <tspan x="65" y="1289">module.exports = {*}</tspan>
            </text>
                   
                   
                </g>
                <g>
                   <rect x="87" y="1317.5"
            width="84.6" height="30"
            rx="2" ry="2"
            style="fill:#90caf9; stroke:#444; stroke-width:1" />
                   <title>methods</title>
            <text x="102" y="1337.5"
                font-family="monospace" font-size="13" fill="#222">
                <tspan x="102" y="1337.5">methods</tspan>
            </text>
                   
                   
                </g>
            <g>
               <rect x="25" y="13.75"
            width="216.6" height="24"
            style="fill:#fff59d; stroke:#444; stroke-width:1" />
               <circle cx="25" cy="25" r="15"
        style="fill:#fff59d; stroke:#444; stroke-width:1" />
               <title>Program: source module</title>
            <text x="55" y="30"
                font-family="monospace" font-size="13" fill="#222">
                <tspan x="55" y="30">Program: source module</tspan>
            </text>
            </g>
            <g>
               <path d="M25, 40 L25 76 Q25 80
                29 80
                L42 80 "
        style="fill:none; stroke:#444; stroke-width:1" />
               <path d="M42, 77 L50, 80 L42, 83 Z" 
        fill="#333" />
            </g>
            <g>
               <path d="M25, 40 L25 124.5 Q25 128.5
                29 128.5
                L42 128.5 "
        style="fill:none; stroke:#444; stroke-width:1" />
               <path d="M42, 125.5 L50, 128.5 L42, 131.5 Z" 
        fill="#333" />
            </g>
            <g>
               <path d="M25, 40 L25 173 Q25 177
                29 177
                L42 177 "
        style="fill:none; stroke:#444; stroke-width:1" />
               <path d="M42, 174 L50, 177 L42, 180 Z" 
        fill="#333" />
            </g>
            <g>
               <path d="M25, 40 L25 221.5 Q25 225.5
                29 225.5
                L42 225.5 "
        style="fill:none; stroke:#444; stroke-width:1" />
               <path d="M42, 222.5 L50, 225.5 L42, 228.5 Z" 
        fill="#333" />
            </g>
            <g>
               <path d="M68.5, 240.5 L68.5 270 Q68.5 274
                72.5 274
                L87 274 "
        style="fill:none; stroke:#444; stroke-width:1" />
               false
            </g>
            <g>
               <path d="M68.5, 240.5 L68.5 318.5 Q68.5 322.5
                72.5 322.5
                L87 322.5 "
        style="fill:none; stroke:#444; stroke-width:1" />
               false
            </g>
            <g>
               <path d="M68.5, 240.5 L68.5 367 Q68.5 371
                72.5 371
                L87 371 "
        style="fill:none; stroke:#444; stroke-width:1" />
               false
            </g>
            <g>
               <path d="M25, 40 L25 430.5 Q25 434.5
                29 434.5
                L42 434.5 "
        style="fill:none; stroke:#444; stroke-width:1" />
               <path d="M42, 431.5 L50, 434.5 L42, 437.5 Z" 
        fill="#333" />
            </g>
            <g>
               <path d="M68.5, 449.5 L68.5 494 Q68.5 498
                72.5 498
                L79 498 "
        style="fill:none; stroke:#444; stroke-width:1" />
               <path d="M79, 495 L87, 498 L79, 501 Z" 
        fill="#333" />
            </g>
            <g>
               <path d="M117, 528 L117 549 Q117 553
                121 553
                L129 553 "
        style="fill:none; stroke:#444; stroke-width:1" />
               <path d="M129, 550 L137, 553 L129, 556 Z" 
        fill="#333" />
            </g>
            <g>
               <path d="M68.5, 449.5 L68.5 599 Q68.5 603
                72.5 603
                L79 603 "
        style="fill:none; stroke:#444; stroke-width:1" />
               <path d="M79, 600 L87, 603 L79, 606 Z" 
        fill="#333" />
            </g>
            <g>
               <path d="M68.5, 449.5 L68.5 662.5 Q68.5 666.5
                72.5 666.5
                L79 666.5 "
        style="fill:none; stroke:#444; stroke-width:1" />
               <path d="M79, 663.5 L87, 666.5 L79, 669.5 Z" 
        fill="#333" />
            </g>
            <g>
               <path d="M117, 696.5 L117 717.5 Q117 721.5
                121 721.5
                L129 721.5 "
        style="fill:none; stroke:#444; stroke-width:1" />
               <path d="M129, 718.5 L137, 721.5 L129, 724.5 Z" 
        fill="#333" />
            </g>
            <g>
               <path d="M68.5, 449.5 L68.5 767.5 Q68.5 771.5
                72.5 771.5
                L79 771.5 "
        style="fill:none; stroke:#444; stroke-width:1" />
               <path d="M79, 768.5 L87, 771.5 L79, 774.5 Z" 
        fill="#333" />
            </g>
            <g>
               <path d="M25, 40 L25 831 Q25 835
                29 835
                L42 835 "
        style="fill:none; stroke:#444; stroke-width:1" />
               <path d="M42, 832 L50, 835 L42, 838 Z" 
        fill="#333" />
            </g>
            <g>
               <path d="M68.5, 850 L68.5 894.5 Q68.5 898.5
                72.5 898.5
                L79 898.5 "
        style="fill:none; stroke:#444; stroke-width:1" />
               <path d="M79, 895.5 L87, 898.5 L79, 901.5 Z" 
        fill="#333" />
            </g>
            <g>
               <path d="M117, 928.5 L117 949.5 Q117 953.5
                121 953.5
                L129 953.5 "
        style="fill:none; stroke:#444; stroke-width:1" />
               <path d="M129, 950.5 L137, 953.5 L129, 956.5 Z" 
        fill="#333" />
            </g>
            <g>
               <path d="M68.5, 850 L68.5 1014.5 Q68.5 1018.5
                72.5 1018.5
                L79 1018.5 "
        style="fill:none; stroke:#444; stroke-width:1" />
               <path d="M79, 1015.5 L87, 1018.5 L79, 1021.5 Z" 
        fill="#333" />
            </g>
            <g>
               <path d="M117, 1048.5 L117 1069.5 Q117 1073.5
                121 1073.5
                L129 1073.5 "
        style="fill:none; stroke:#444; stroke-width:1" />
               <path d="M129, 1070.5 L137, 1073.5 L129, 1076.5 Z" 
        fill="#333" />
            </g>
            <g>
               <path d="M68.5, 850 L68.5 1119.5 Q68.5 1123.5
                72.5 1123.5
                L79 1123.5 "
        style="fill:none; stroke:#444; stroke-width:1" />
               <path d="M79, 1120.5 L87, 1123.5 L79, 1126.5 Z" 
        fill="#333" />
            </g>
            <g>
               <path d="M68.5, 850 L68.5 1168 Q68.5 1172
                72.5 1172
                L79 1172 "
        style="fill:none; stroke:#444; stroke-width:1" />
               <path d="M79, 1169 L87, 1172 L79, 1175 Z" 
        fill="#333" />
            </g>
            <g>
               <path d="M25, 40 L25 1231.5 Q25 1235.5
                29 1235.5
                L42 1235.5 "
        style="fill:none; stroke:#444; stroke-width:1" />
               <path d="M42, 1232.5 L50, 1235.5 L42, 1238.5 Z" 
        fill="#333" />
            </g>
            <g>
               <path d="M25, 40 L25 1280 Q25 1284
                29 1284
                L42 1284 "
        style="fill:none; stroke:#444; stroke-width:1" />
               <path d="M42, 1281 L50, 1284 L42, 1287 Z" 
        fill="#333" />
            </g>
            <g>
               <path d="M68.5, 1299 L68.5 1328.5 Q68.5 1332.5
                72.5 1332.5
                L87 1332.5 "
        style="fill:none; stroke:#444; stroke-width:1" />
               false
            </g>
            </svg>