<?xml version="1.0" encoding="UTF-8"?>
<svg id="_Шар_1" data-name="Шар 1" xmlns="http://www.w3.org/2000/svg" viewBox="0 0 547.51 149.74">
  <defs>
    <style>
      .cls-1 {
        fill: var(--color);
      }
    </style>
  </defs>
  <g>
    <path class="cls-1" d="M183.81,119.86c-4.61,0-8.82-.86-12.65-2.57-3.82-1.71-7.08-4.19-9.78-7.43-2.7-3.24-4.78-7.18-6.25-11.84-1.47-4.66-2.2-9.97-2.2-15.96s.88-11.17,2.65-15.88c1.76-4.71,4.14-8.68,7.13-11.91,2.99-3.24,6.4-5.74,10.22-7.5,3.82-1.76,7.8-2.65,11.91-2.65s7.74,.73,10.88,2.2c3.14,1.47,6.12,3.58,8.97,6.32h.44l-.88-38.38h17.06V119.91h-13.69l-1.6-10.19h-.44c-2.84,2.84-6.15,5.25-9.92,7.21-3.77,1.96-7.72,2.94-11.84,2.94Zm4.12-13.97c5.98,0,11.42-2.89,16.32-8.68v-32.5c-2.55-2.45-5.1-4.17-7.64-5.15-2.55-.98-5.15-1.47-7.79-1.47s-4.92,.54-7.13,1.62c-2.2,1.08-4.14,2.62-5.81,4.63-1.67,2.01-2.99,4.48-3.97,7.43-.98,2.94-1.47,6.32-1.47,10.15,0,7.84,1.52,13.8,4.56,17.87,3.04,4.07,7.35,6.1,12.94,6.1Z"/>
    <path class="cls-1" d="M271.05,119.86c-5.49,0-10.64-.86-15.44-2.57-4.8-1.71-9-4.19-12.57-7.43-3.58-3.24-6.4-7.2-8.45-11.91-2.06-4.71-3.09-10.05-3.09-16.03s1.03-11.15,3.09-15.81c2.06-4.65,4.83-8.63,8.31-11.91,3.48-3.28,7.45-5.78,11.91-7.5,4.46-1.71,9.14-2.57,14.04-2.57,5.39,0,10.15,.86,14.26,2.57,4.12,1.72,7.6,4.07,10.44,7.06,2.84,2.99,5,6.59,6.47,10.81,1.47,4.22,2.2,8.82,2.2,13.82,0,1.67-.07,3.26-.22,4.78-.15,1.52-.32,2.77-.52,3.75h-53.08c.98,6.76,3.68,11.76,8.09,15,4.41,3.24,10,4.85,16.76,4.85,3.82,0,7.35-.54,10.59-1.62,3.23-1.08,6.47-2.55,9.7-4.41l5.74,10.59c-3.82,2.55-8.16,4.61-13.01,6.17-4.85,1.57-9.92,2.35-15.22,2.35Zm-1.76-62.64c-5,0-9.39,1.47-13.16,4.41-3.77,2.94-6.2,7.35-7.28,13.23h38.38c-.59-5.88-2.43-10.29-5.51-13.23-3.09-2.94-7.23-4.41-12.43-4.41Z"/>
    <path class="cls-1" d="M312.41,119.86V47.67h13.09l1.32,9.12h.44c1.57-3.14,3.58-5.73,6.03-7.79,2.45-2.06,5.78-3.09,10-3.09,6.76,0,11.12,4.02,13.09,12.06,1.67-3.53,3.77-6.42,6.32-8.68,2.55-2.25,5.93-3.38,10.15-3.38,5.09,0,9.04,1.99,11.84,5.96,2.79,3.97,4.19,9.58,4.19,16.84v51.17h-16.32v-49.99c0-6.37-1.91-9.56-5.73-9.56-1.96,0-3.6,.76-4.92,2.28-1.33,1.52-2.72,3.8-4.19,6.84v50.43h-14.12v-49.99c0-3.14-.44-5.51-1.32-7.13-.88-1.62-2.35-2.42-4.41-2.42s-3.6,.76-4.92,2.28c-1.33,1.52-2.67,3.8-4.05,6.84v50.43h-16.47Z"/>
    <path class="cls-1" d="M435.38,119.86c-4.71,0-9.26-.83-13.67-2.5-4.41-1.67-8.29-4.12-11.62-7.35-3.33-3.24-6-7.21-8.02-11.91-2.01-4.71-3.01-10.05-3.01-16.03s1.01-11.32,3.01-16.03c2.01-4.7,4.68-8.68,8.02-11.91,3.33-3.24,7.2-5.71,11.62-7.43,4.41-1.71,8.97-2.57,13.67-2.57s9.26,.86,13.67,2.57c4.41,1.72,8.28,4.19,11.62,7.43,3.33,3.24,6,7.21,8.01,11.91,2.01,4.71,3.02,10.05,3.02,16.03s-1.01,11.32-3.02,16.03c-2.01,4.7-4.68,8.68-8.01,11.91-3.33,3.24-7.2,5.68-11.62,7.35-4.41,1.67-8.97,2.5-13.67,2.5Zm0-13.82c5.88,0,10.49-2.18,13.82-6.54,3.33-4.36,5-10.17,5-17.42s-1.67-13.21-5-17.57c-3.33-4.36-7.94-6.54-13.82-6.54s-10.49,2.18-13.82,6.54c-3.33,4.36-5,10.22-5,17.57s1.67,13.06,5,17.42c3.33,4.36,7.94,6.54,13.82,6.54Z"/>
    <path class="cls-1" d="M513.69,119.86c-6.76,0-13.23-1.1-19.41-3.31-6.17-2.2-11.52-4.83-16.03-7.87l7.35-10.73c4.41,2.84,9.09,5.07,14.04,6.69,4.95,1.62,10.36,2.43,16.25,2.43,5,0,8.7-.83,11.1-2.5,2.4-1.67,3.6-3.72,3.6-6.17,0-1.18-.24-2.23-.73-3.16-.49-.93-1.47-1.84-2.94-2.72-1.47-.88-3.51-1.71-6.1-2.5-2.6-.78-6-1.62-10.22-2.5-9.71-1.96-16.79-4.71-21.25-8.23-4.46-3.53-6.69-8.04-6.69-13.53,0-6.37,2.74-11.56,8.23-15.59,5.49-4.02,13.33-6.03,23.52-6.03,5.98,0,11.57,.98,16.76,2.94,5.19,1.96,9.65,4.17,13.38,6.61l-7.79,10.44c-3.53-2.25-7.31-4.02-11.32-5.29-4.02-1.27-8.18-1.91-12.5-1.91-4.8,0-8.23,.76-10.29,2.28-2.06,1.52-3.09,3.41-3.09,5.66,0,2.55,1.47,4.46,4.41,5.73,2.94,1.28,7.74,2.65,14.41,4.12,5.78,1.28,10.53,2.65,14.26,4.12,3.72,1.47,6.69,3.12,8.89,4.93,2.21,1.81,3.75,3.85,4.63,6.1,.88,2.26,1.32,4.8,1.32,7.65,0,3.14-.73,6.05-2.2,8.75-1.47,2.7-3.63,5.05-6.47,7.06-2.84,2.01-6.37,3.61-10.59,4.78-4.22,1.17-9.07,1.76-14.56,1.76Z"/>
  </g>
  <g>
    <path class="cls-1" d="M39.04,114.36l4.68,1.6L81.29,4.64l-4.75-1.6C69.63,.88,22.12-12.15,3.71,39.4-13.86,95.76,36.62,113.39,39.04,114.36ZM62.51,10.35c2.97,.56,5.19,3.46,4.17,6.48l-13.34,39.76c-9.42,27.2-48.89,11.22-37.27-17.24C27.86,10.47,51.98,8.36,62.51,10.35Z"/>
    <path class="cls-1" d="M86.94,35.79l-4.68-1.6-37.58,111.32,4.75,1.6c3.6,1.24,54.43,15.19,72.84-36.36,17.57-56.36-33.1-74.13-35.33-74.96Zm-23.47,104.01c-2.97-.56-5.19-3.46-4.17-6.48l13.34-39.76c9.42-27.2,48.89-11.22,37.27,17.24-11.79,28.88-35.91,30.99-46.44,29Z"/>
  </g>
</svg>